<svg width="305" height="204" viewBox="0 0 305 204" fill="none" xmlns="http://www.w3.org/2000/svg">
    <path d="M267.538 122.016L270.909 116.561L269.234 115.521C268.997 115.369 268.807 115.154 268.684 114.901C268.561 114.647 268.511 114.365 268.538 114.084C268.566 113.772 268.576 113.459 268.571 113.146C268.563 112.86 268.635 112.577 268.778 112.33C268.922 112.082 269.132 111.88 269.384 111.747L271.109 110.816L268.083 105.157L266.338 106.079C266.095 106.211 265.821 106.272 265.546 106.257C265.27 106.242 265.004 106.151 264.777 105.994C264.498 105.799 264.209 105.619 263.911 105.455C263.667 105.321 263.466 105.122 263.329 104.88C263.192 104.638 263.124 104.362 263.134 104.084L263.199 102.122L256.802 101.922L256.741 103.893C256.733 104.171 256.647 104.442 256.494 104.675C256.341 104.908 256.127 105.093 255.875 105.21C255.724 105.28 255.578 105.357 255.432 105.435C255.285 105.512 255.139 105.594 255 105.68C254.764 105.825 254.493 105.903 254.216 105.903C253.938 105.903 253.667 105.825 253.431 105.68L251.755 104.639L248.384 110.094L250.064 111.139C250.3 111.289 250.49 111.503 250.612 111.756C250.734 112.009 250.783 112.291 250.755 112.571C250.73 112.881 250.718 113.195 250.722 113.505C250.733 113.79 250.664 114.072 250.524 114.319C250.384 114.567 250.178 114.771 249.929 114.909L248.205 115.835L251.231 121.494L252.955 120.567C253.206 120.435 253.489 120.375 253.772 120.395C254.055 120.414 254.327 120.512 254.557 120.678C254.812 120.856 255.077 121.02 255.35 121.167C255.599 121.298 255.807 121.495 255.95 121.737C256.094 121.979 256.168 122.256 256.164 122.538L256.103 124.521L262.495 124.721L262.556 122.754C262.568 122.473 262.656 122.2 262.813 121.966C262.969 121.732 263.187 121.546 263.443 121.428C263.589 121.363 263.728 121.29 263.87 121.216C264.012 121.143 264.146 121.061 264.277 120.98C264.516 120.832 264.792 120.753 265.074 120.753C265.355 120.753 265.631 120.832 265.871 120.98L267.538 122.016ZM262.707 117.601C261.817 118.243 260.749 118.589 259.654 118.591C258.558 118.592 257.489 118.249 256.598 117.61C255.707 116.971 255.037 116.067 254.684 115.027C254.331 113.986 254.312 112.86 254.629 111.808C254.947 110.756 255.585 109.83 256.454 109.16C257.323 108.491 258.379 108.111 259.474 108.075C260.569 108.039 261.648 108.348 262.559 108.959C263.47 109.57 264.168 110.452 264.553 111.481C264.959 112.563 264.998 113.749 264.664 114.855C264.331 115.962 263.643 116.927 262.707 117.601Z"
          fill="#EBEBEB"/>
    <path d="M247.66 101.93L251.54 99.6818L250.857 98.4904C250.758 98.3184 250.71 98.1224 250.716 97.9242C250.723 97.7261 250.784 97.5337 250.893 97.3684C251.014 97.1814 251.126 96.988 251.227 96.7891C251.314 96.6119 251.449 96.4627 251.617 96.3583C251.784 96.2538 251.977 96.1981 252.174 96.1975H253.549V91.7095H252.174C251.977 91.7079 251.785 91.6519 251.617 91.5475C251.45 91.4431 251.315 91.2945 251.227 91.1179C251.126 90.9176 251.014 90.7229 250.893 90.5344C250.784 90.37 250.723 90.1782 250.716 89.9807C250.71 89.7832 250.758 89.5878 250.857 89.4165L251.54 88.2252L247.66 85.9648L246.973 87.1603C246.873 87.331 246.727 87.4705 246.553 87.5634C246.378 87.6563 246.182 87.699 245.985 87.6866C245.875 87.6866 245.765 87.6866 245.651 87.6866C245.537 87.6866 245.432 87.6866 245.322 87.6866C245.126 87.6991 244.93 87.6569 244.756 87.5647C244.583 87.4725 244.438 87.334 244.338 87.1644L243.646 85.9648L239.763 88.2129L240.45 89.4084C240.548 89.5796 240.597 89.775 240.59 89.9726C240.584 90.1701 240.523 90.3619 240.413 90.5263C240.291 90.7133 240.178 90.9067 240.076 91.1056C239.99 91.2831 239.855 91.4326 239.689 91.5372C239.522 91.6418 239.329 91.6973 239.132 91.6972H237.758V96.1852H239.12C239.316 96.1853 239.509 96.2403 239.675 96.3441C239.842 96.4479 239.976 96.5964 240.064 96.7728C240.165 96.9722 240.278 97.1657 240.401 97.3521C240.51 97.5173 240.572 97.7098 240.578 97.9079C240.585 98.1061 240.536 98.3021 240.438 98.4741L239.75 99.6696L243.634 101.918L244.321 100.722C244.422 100.552 244.568 100.414 244.742 100.321C244.917 100.229 245.113 100.187 245.31 100.2H245.639H245.972C246.169 100.187 246.366 100.229 246.54 100.321C246.714 100.414 246.86 100.552 246.961 100.722L247.66 101.93ZM245.627 97.6296C244.903 97.6296 244.195 97.4142 243.593 97.0107C242.992 96.6072 242.522 96.0337 242.245 95.3628C241.968 94.6918 241.896 93.9535 242.037 93.2412C242.178 92.5289 242.527 91.8746 243.039 91.3611C243.551 90.8475 244.203 90.4978 244.913 90.3561C245.623 90.2144 246.359 90.2872 247.027 90.5651C247.696 90.843 248.268 91.3137 248.67 91.9175C249.072 92.5214 249.287 93.2313 249.287 93.9576C249.287 94.9314 248.901 95.8654 248.215 96.5541C247.528 97.2427 246.597 97.6296 245.627 97.6296Z"
          fill="#EBEBEB"/>
    <path d="M35.0996 37.8825C35.27 37.9827 35.4094 38.1285 35.502 38.3036C35.5947 38.4787 35.637 38.6761 35.6242 38.874C35.6242 38.9841 35.6242 39.0943 35.6242 39.2044C35.6242 39.3146 35.6242 39.4288 35.6242 39.539C35.6366 39.7357 35.5945 39.9321 35.5027 40.1063C35.4108 40.2806 35.2727 40.4259 35.1036 40.5264L33.9121 41.2077L36.1528 45.1041L37.3403 44.4146C37.5122 44.3167 37.7077 44.2686 37.9052 44.2758C38.1027 44.283 38.2943 44.3452 38.4586 44.4554C38.6451 44.5771 38.8378 44.6888 39.0361 44.79C39.2121 44.8786 39.3603 45.0143 39.4643 45.182C39.5684 45.3497 39.6242 45.543 39.6258 45.7406V47.1156H44.0991V45.7406C44.0998 45.5434 44.1549 45.3502 44.2582 45.1824C44.3616 45.0146 44.5092 44.8788 44.6847 44.79C44.8835 44.6897 45.0763 44.578 45.2622 44.4554C45.4265 44.3452 45.6181 44.283 45.8156 44.2758C46.0131 44.2686 46.2087 44.3167 46.3805 44.4146L47.572 45.1041L49.8128 41.2077L48.6172 40.5141C48.4475 40.4144 48.3088 40.2692 48.2169 40.0947C48.1249 39.9203 48.0833 39.7236 48.0966 39.5268C48.0966 39.4166 48.0966 39.3064 48.0966 39.1963C48.0966 39.0861 48.0966 38.976 48.0966 38.8658C48.0835 38.6684 48.1251 38.4712 48.217 38.2962C48.3089 38.1211 48.4475 37.9751 48.6172 37.8744L49.8128 37.1848L47.5802 33.2966L46.3927 33.9861C46.2212 34.0846 46.0258 34.1334 45.8284 34.1269C45.6309 34.1204 45.4391 34.059 45.2744 33.9494C45.088 33.8263 44.8952 33.7133 44.6969 33.6108C44.5203 33.5229 44.3716 33.3874 44.2675 33.2195C44.1633 33.0516 44.1079 32.8579 44.1072 32.6601V31.2852H39.6339V32.6601C39.632 32.8581 39.5755 33.0517 39.4707 33.2195C39.3659 33.3873 39.2169 33.5227 39.0402 33.6108C38.8405 33.7133 38.6464 33.8263 38.4586 33.9494C38.2948 34.059 38.1036 34.1206 37.9067 34.1271C37.7099 34.1336 37.5151 34.0847 37.3444 33.9861L36.1528 33.2966L33.9121 37.193L35.0996 37.8825ZM41.8868 35.5202C42.6107 35.5202 43.3183 35.7356 43.9202 36.139C44.5221 36.5425 44.9912 37.116 45.2682 37.787C45.5453 38.458 45.6177 39.1963 45.4765 39.9086C45.3353 40.6209 44.9867 41.2752 44.4749 41.7887C43.963 42.3022 43.3108 42.652 42.6009 42.7936C41.8909 42.9353 41.155 42.8626 40.4862 42.5847C39.8174 42.3068 39.2458 41.8361 38.8437 41.2323C38.4415 40.6284 38.2268 39.9184 38.2268 39.1922C38.2268 38.2183 38.6124 37.2843 39.2988 36.5957C39.9852 35.9071 40.9162 35.5202 41.8868 35.5202Z"
          fill="#EBEBEB"/>
    <path d="M229.702 38.4449C228.58 41.3142 227.918 44.3438 227.742 47.4209H227.628H219.901H219.804V47.2006C219.804 46.9966 219.848 46.7926 219.869 46.5886C219.968 45.5302 220.144 44.4802 220.393 43.447C220.806 41.7566 221.398 40.1152 222.158 38.551C222.173 38.5128 222.199 38.4804 222.234 38.459C222.268 38.4376 222.309 38.4283 222.349 38.4327H229.71L229.702 38.4449Z"
          fill="#EBEBEB"/>
    <path d="M229.462 58.5474H222.166C222.128 58.5521 222.089 58.5433 222.056 58.5225C222.023 58.5017 221.999 58.4701 221.987 58.4332C221.147 56.6737 220.538 54.8128 220.173 52.8966C219.997 51.9705 219.878 51.0344 219.815 50.0936C219.819 50.0625 219.819 50.031 219.815 49.9998V49.7754C219.856 49.7754 219.897 49.7754 219.937 49.7754H227.623C227.766 49.7754 227.758 49.7754 227.77 49.9223C227.819 50.5628 227.859 51.2034 227.92 51.8399C228.022 52.8539 228.185 53.8608 228.408 54.855C228.672 56.0728 229.018 57.271 229.445 58.4413C229.453 58.4763 229.458 58.5118 229.462 58.5474Z"
          fill="#EBEBEB"/>
    <path d="M260.161 60.8645L260.096 60.9747C259.479 61.9246 258.786 62.8237 258.026 63.6634C257.116 64.7003 256.1 65.6396 254.997 66.4664C252.87 68.0868 250.463 69.2986 247.896 70.0405C246.899 70.3277 245.882 70.5444 244.854 70.6892L244.558 70.7381H244.379L244.212 70.6321L244.403 70.4933C246.63 68.9724 248.578 67.0773 250.161 64.8915C251.055 63.6572 251.842 62.3482 252.512 60.9788C252.524 60.9419 252.548 60.9103 252.581 60.8894C252.614 60.8686 252.652 60.8598 252.691 60.8645H260.161Z"
          fill="#EBEBEB"/>
    <path d="M252.858 47.438H242.605V38.462H250.609C250.644 38.4578 250.681 38.4666 250.71 38.4868C250.74 38.507 250.762 38.5373 250.771 38.5721C251.503 40.2617 252.049 42.0266 252.398 43.8353C252.584 44.7794 252.72 45.7328 252.805 46.6913C252.817 46.9198 252.837 47.1728 252.858 47.438Z"
          fill="#EBEBEB"/>
    <path d="M252.797 49.8359C252.797 50.0481 252.797 50.2439 252.764 50.4683C252.72 50.9702 252.687 51.472 252.618 51.9698C252.52 52.6593 252.415 53.3488 252.276 54.0302C251.973 55.5311 251.527 56.9997 250.947 58.4162C250.938 58.458 250.914 58.495 250.879 58.5199C250.845 58.5448 250.802 58.5558 250.76 58.5508H242.545V49.8359H252.797Z"
          fill="#EBEBEB"/>
    <path d="M240.291 38.5016V47.5021H230.283C230.283 47.2736 230.304 47.0533 230.324 46.8289C230.377 46.3271 230.417 45.8212 230.499 45.3234C230.621 44.5604 230.751 43.7975 230.905 43.0386C231.241 41.5186 231.726 40.0357 232.353 38.6118C232.364 38.5758 232.387 38.5449 232.418 38.5246C232.449 38.5044 232.487 38.4962 232.524 38.5016H240.283H240.291Z"
          fill="#EBEBEB"/>
    <path d="M240.304 49.9556C240.304 52.779 240.304 55.5996 240.304 58.4175V58.5481H232.3C232.262 58.5524 232.223 58.5429 232.191 58.5212C232.159 58.4996 232.136 58.4671 232.126 58.4298C231.516 56.9702 231.06 55.4511 230.763 53.8969C230.613 53.0809 230.499 52.2894 230.397 51.4816C230.332 50.9552 230.316 50.4208 230.279 49.8904C230.279 49.8904 230.279 49.8618 230.279 49.8332H240.178C240.279 49.8251 240.304 49.8577 240.304 49.9556Z"
          fill="#EBEBEB"/>
    <path d="M263.728 47.5021H255.326C255.153 44.3969 254.487 41.3393 253.354 38.4445H261.182C261.22 38.4401 261.259 38.4484 261.292 38.4684C261.325 38.4883 261.351 38.5186 261.365 38.5547C262.263 40.3376 262.915 42.2344 263.305 44.1933C263.509 45.2358 263.645 46.2907 263.711 47.3512C263.732 47.3961 263.728 47.445 263.728 47.5021Z"
          fill="#EBEBEB"/>
    <path d="M263.736 49.7754C263.736 49.9794 263.736 50.1834 263.707 50.367C263.535 52.9033 262.918 55.3893 261.886 57.711C261.772 57.9721 261.65 58.2292 261.532 58.4903C261.523 58.5157 261.505 58.5372 261.482 58.5513C261.459 58.5654 261.432 58.5712 261.406 58.5678H253.679H253.598C253.691 58.2985 253.785 58.0374 253.874 57.7763C254.325 56.4369 254.671 55.0647 254.911 53.6718C255.091 52.6597 255.211 51.6379 255.273 50.6118C255.273 50.3711 255.302 50.1303 255.314 49.8855C255.314 49.8243 255.314 49.7917 255.399 49.7958H263.728L263.736 49.7754Z"
          fill="#EBEBEB"/>
    <path d="M259.93 36.1524C259.93 36.1524 259.93 36.1524 259.93 36.185H252.459C252.423 36.1898 252.385 36.1825 252.353 36.1641C252.321 36.1457 252.295 36.1172 252.28 36.083C251.3 34.1239 250.07 32.3012 248.62 30.6607C247.771 29.7123 246.834 28.8462 245.823 28.074C245.322 27.666 244.802 27.3232 244.29 26.952L244.204 26.8867L244.306 26.8173C244.306 26.7684 244.277 26.7194 244.257 26.6582C247.394 27.018 250.417 28.0524 253.12 29.6909C255.823 31.3293 258.141 33.5332 259.918 36.1524H259.93Z"
          fill="#EBEBEB"/>
    <path d="M238.872 70.6362C238.802 70.6578 238.73 70.6701 238.656 70.6729C237.849 70.5658 237.049 70.4091 236.261 70.2037C234.787 69.8301 233.357 69.2994 231.995 68.6207C230.439 67.8456 228.981 66.8868 227.652 65.7647C226.704 64.9705 225.829 64.0925 225.037 63.1413C224.447 62.4223 223.904 61.6659 223.41 60.8769L223.378 60.8075H230.336C230.373 60.8037 230.41 60.8125 230.441 60.8326C230.472 60.8526 230.495 60.8826 230.507 60.9177C231.219 62.3595 232.06 63.7333 233.02 65.0221C233.907 66.1923 234.892 67.2842 235.964 68.2861C236.85 69.1252 237.802 69.8907 238.811 70.575L238.872 70.6362Z"
          fill="#EBEBEB"/>
    <path d="M238.778 26.8745C238.465 27.107 238.099 27.3641 237.741 27.6415C236.548 28.572 235.438 29.607 234.427 30.7342C233.055 32.2346 231.886 33.9096 230.95 35.7158C230.889 35.8301 230.836 35.9443 230.771 36.0545C230.759 36.0727 230.744 36.0883 230.725 36.1002C230.707 36.1121 230.687 36.1202 230.665 36.1238C230.543 36.1238 230.417 36.1238 230.291 36.1238H223.602C227.327 30.8484 232.333 27.6742 238.713 26.7031L238.673 26.7888L238.778 26.8745Z"
          fill="#EBEBEB"/>
    <path d="M249.8 60.873C248.856 62.5334 247.719 64.0756 246.412 65.4671C245.259 66.7159 243.961 67.8213 242.545 68.7597V60.873H249.8Z"
          fill="#EBEBEB"/>
    <path d="M240.292 60.877V68.6086C237.398 66.6175 235.014 63.9683 233.334 60.877H240.292Z" fill="#EBEBEB"/>
    <path d="M249.568 36.1206H242.605V28.748C244.035 29.6817 245.347 30.7844 246.514 32.0324C247.671 33.2848 248.694 34.6549 249.568 36.1206Z"
          fill="#EBEBEB"/>
    <path d="M240.292 28.9668V36.1762H233.61C235.244 33.2815 237.533 30.8122 240.292 28.9668Z" fill="#EBEBEB"/>
    <path d="M109.776 23.5078H56.8643V59.2813H109.776V23.5078Z" fill="white"/>
    <path d="M109.979 59.4861H56.6611V23.3047H109.979V59.4861ZM57.0678 59.0781H109.573V23.7127H57.0678V59.0781Z"
          fill="#EBEBEB"/>
    <path d="M61.9761 26.2181C61.9761 26.4602 61.9046 26.6969 61.7705 26.8982C61.6365 27.0994 61.4459 27.2563 61.223 27.349C61.0001 27.4416 60.7548 27.4659 60.5181 27.4186C60.2815 27.3714 60.0641 27.2548 59.8935 27.0836C59.7228 26.9125 59.6066 26.6944 59.5596 26.4569C59.5125 26.2195 59.5367 25.9734 59.629 25.7497C59.7213 25.5261 59.8777 25.3349 60.0783 25.2004C60.279 25.0659 60.5148 24.9941 60.7561 24.9941C61.0797 24.9941 61.39 25.1231 61.6188 25.3526C61.8476 25.5822 61.9761 25.8935 61.9761 26.2181Z"
          fill="#37474F"/>
    <path d="M66.9537 26.2181C66.9537 26.4602 66.8821 26.6969 66.7481 26.8982C66.614 27.0994 66.4235 27.2563 66.2005 27.349C65.9776 27.4416 65.7323 27.4659 65.4957 27.4186C65.259 27.3714 65.0416 27.2548 64.871 27.0836C64.7004 26.9125 64.5842 26.6944 64.5371 26.4569C64.49 26.2195 64.5142 25.9734 64.6065 25.7497C64.6989 25.5261 64.8552 25.3349 65.0559 25.2004C65.2565 25.0659 65.4924 24.9941 65.7337 24.9941C66.0572 24.9941 66.3675 25.1231 66.5963 25.3526C66.8251 25.5822 66.9537 25.8935 66.9537 26.2181Z"
          fill="#EBEBEB"/>
    <path d="M71.9273 26.2181C71.9273 26.4602 71.8558 26.6969 71.7217 26.8982C71.5876 27.0994 71.3971 27.2563 71.1742 27.349C70.9513 27.4416 70.706 27.4659 70.4693 27.4186C70.2326 27.3714 70.0153 27.2548 69.8446 27.0836C69.674 26.9125 69.5578 26.6944 69.5107 26.4569C69.4637 26.2195 69.4878 25.9734 69.5802 25.7497C69.6725 25.5261 69.8289 25.3349 70.0295 25.2004C70.2301 25.0659 70.466 24.9941 70.7073 24.9941C71.0309 24.9941 71.3412 25.1231 71.57 25.3526C71.7988 25.5822 71.9273 25.8935 71.9273 26.2181Z"
          fill="#FF725E"/>
    <path d="M109.776 28.6953H56.8643V29.1033H109.776V28.6953Z" fill="#EBEBEB"/>
    <path d="M152.5 185.174C226.34 185.174 286.199 177.626 286.199 168.316C286.199 159.005 226.34 151.457 152.5 151.457C78.6592 151.457 18.7998 159.005 18.7998 168.316C18.7998 177.626 78.6592 185.174 152.5 185.174Z"
          fill="#EBEBEB"/>
    <path d="M20.626 146.141L53.5944 146.044L86.5629 146.007L152.5 145.938L218.437 146.007L251.405 146.044L284.374 146.141L251.405 146.243L218.437 146.276L152.5 146.345L86.5629 146.276L53.5944 146.239L20.626 146.141Z"
          fill="#263238"/>
    <path d="M231.702 39.6406H72.6104V146.41H231.702V39.6406Z" fill="#DBDBDB"/>
    <path d="M230.552 40.9414H73.7695V145.108H230.552V40.9414Z" fill="#263238"/>
    <path d="M252.426 154.416H51.8906V161.744H252.426V154.416Z" fill="#C7C7C7"/>
    <path d="M51.8906 154.415L72.6103 146.41H231.706L252.426 154.415H51.8906Z" fill="#DBDBDB"/>
    <path d="M74.4609 151.575L87.8321 146.41H216.481L229.856 151.575H74.4609Z" fill="#263238"/>
    <path d="M221.687 48.8574H82.627V137.194H221.687V48.8574Z" fill="white"/>
    <path d="M221.686 48.8574H82.5088V52.2561H221.686V48.8574Z" fill="#455A64"/>
    <path d="M85.2051 50.5553C85.2059 50.7225 85.1572 50.8862 85.0652 51.0256C84.9732 51.1651 84.842 51.2739 84.6882 51.3385C84.5345 51.403 84.3651 51.4204 84.2016 51.3882C84.038 51.3561 83.8876 51.276 83.7695 51.158C83.6514 51.0401 83.5708 50.8896 83.538 50.7257C83.5051 50.5617 83.5216 50.3917 83.5852 50.2372C83.6488 50.0826 83.7567 49.9504 83.8952 49.8575C84.0337 49.7645 84.1966 49.7148 84.3633 49.7148C84.5858 49.7148 84.7993 49.8033 84.9571 49.9608C85.1148 50.1183 85.204 50.332 85.2051 50.5553Z"
          fill="#C7C7C7"/>
    <path d="M88.6533 50.5553C88.6541 50.7227 88.6053 50.8866 88.5131 51.0261C88.421 51.1656 88.2895 51.2745 88.1355 51.3389C87.9816 51.4033 87.812 51.4204 87.6483 51.3879C87.4846 51.3555 87.3343 51.275 87.2163 51.1566C87.0983 51.0382 87.0181 50.8874 86.9857 50.7232C86.9534 50.559 86.9704 50.3888 87.0346 50.2343C87.0988 50.0798 87.2073 49.948 87.3464 49.8555C87.4854 49.763 87.6488 49.714 87.8156 49.7149C88.0374 49.7159 88.2499 49.8048 88.4068 49.9622C88.5636 50.1196 88.6523 50.3328 88.6533 50.5553Z"
          fill="white"/>
    <path d="M92.0654 50.5553C92.0662 50.7225 92.0175 50.8862 91.9255 51.0256C91.8335 51.1651 91.7023 51.2739 91.5486 51.3385C91.3949 51.403 91.2255 51.4204 91.0619 51.3882C90.8983 51.3561 90.748 51.276 90.6298 51.158C90.5117 51.0401 90.4311 50.8896 90.3983 50.7257C90.3655 50.5617 90.3819 50.3917 90.4455 50.2372C90.5091 50.0826 90.617 49.9504 90.7555 49.8575C90.894 49.7645 91.057 49.7148 91.2236 49.7148C91.4462 49.7148 91.6597 49.8033 91.8174 49.9608C91.9752 50.1183 92.0643 50.332 92.0654 50.5553Z"
          fill="#FF725E"/>
    <path d="M255.448 126.479C255.102 128.869 255.224 131.304 255.806 133.648C256.082 134.734 256.449 135.794 256.904 136.818C257.469 138.128 258.067 139.409 257.92 140.845C257.782 140.935 258.258 140.922 258.274 140.78C262.097 138.597 266.997 138.197 269.937 134.627C271.332 132.938 272.036 130.796 272.377 128.65C272.739 126.316 272.841 123.733 272.239 121.432C271.735 119.49 270.612 117.613 268.778 116.659C266.944 115.704 264.435 115.761 262.455 116.377C258.172 117.711 256.05 122.338 255.448 126.479Z"
          fill="#FF725E"/>
    <path d="M253.484 154.873C254.005 153.127 254.525 151.384 255.062 149.642C256.111 146.235 257.201 142.841 258.409 139.483C259.133 137.473 259.896 135.482 260.698 133.51C260.61 132.268 260.456 131.031 260.239 129.805C259.922 128.316 259.458 126.88 259.019 125.423C258.994 125.338 259.137 125.289 259.173 125.374C260.031 127.378 261.154 129.944 261.182 132.31C262.112 130.077 263.113 127.878 264.183 125.713C264.307 123.88 264.251 122.039 264.017 120.217C264.013 120.2 264.017 120.182 264.027 120.168C264.037 120.153 264.052 120.143 264.07 120.14C264.087 120.137 264.105 120.14 264.119 120.15C264.134 120.16 264.144 120.176 264.147 120.193C264.472 121.788 264.597 123.418 264.521 125.044C265.334 123.412 266.203 121.804 267.128 120.221C267.213 120.083 267.408 120.221 267.335 120.368C265.901 123.143 264.562 125.969 263.317 128.847C265.076 127.316 267.109 126.135 269.307 125.366C269.405 125.33 269.474 125.468 269.381 125.509C266.98 126.542 264.784 128 262.898 129.813C261.998 131.919 261.142 134.039 260.328 136.174C262.719 133.82 265.993 132.274 269.157 131.441C269.267 131.413 269.295 131.58 269.19 131.613C265.53 132.718 262.683 134.803 259.893 137.304C259.572 138.169 259.251 139.034 258.941 139.899C257.762 143.188 256.638 146.495 255.57 149.822C255.055 151.413 254.548 153.008 254.049 154.608C253.517 156.329 253.098 158.145 252.402 159.806C252.337 159.965 252.053 159.928 252.089 159.736C252.472 158.092 252.937 156.469 253.484 154.873Z"
          fill="#263238"/>
    <path d="M259.823 123.126C260.504 124.172 260.972 125.342 261.202 126.569C261.202 126.598 261.157 126.618 261.145 126.569C260.719 125.413 260.22 124.284 259.653 123.191C259.596 123.097 259.758 123.028 259.823 123.126Z"
          fill="#263238"/>
    <path d="M266.644 131.114C267.709 130.524 268.872 130.132 270.076 129.955C270.105 129.955 270.125 130 270.076 130.012C269.527 130.241 268.946 130.4 268.388 130.616C267.831 130.832 267.282 131.093 266.713 131.293C266.691 131.297 266.667 131.294 266.648 131.282C266.628 131.271 266.612 131.254 266.604 131.232C266.596 131.211 266.595 131.188 266.603 131.166C266.61 131.144 266.624 131.126 266.644 131.114Z"
          fill="#263238"/>
    <path d="M268.567 121.501C268.912 121.238 269.281 121.01 269.669 120.819C269.682 120.811 269.698 120.809 269.713 120.812C269.727 120.815 269.74 120.825 269.748 120.838C269.757 120.851 269.759 120.866 269.756 120.881C269.752 120.896 269.743 120.909 269.73 120.917C269.391 121.186 269.027 121.422 268.644 121.623C268.575 121.668 268.498 121.55 268.567 121.501Z"
          fill="#263238"/>
    <path d="M242.561 139.506C245.314 140.322 248.079 141.085 250.832 141.897C251.072 141.967 255.712 133.019 254.045 128.413C252.487 124.145 248.929 120.951 244.692 119.502C242.723 118.833 240.308 118.278 238.23 118.731C236.383 119.139 235.082 120.657 234.48 122.403C233.667 124.769 233.935 127.593 234.378 130.012C234.734 132.28 235.667 134.418 237.087 136.218C238.547 137.96 240.413 138.87 242.561 139.506Z"
          fill="#FF725E"/>
    <path d="M238.567 131.005C240.308 131.857 242.114 132.57 243.967 133.138C245.203 133.472 246.408 133.909 247.57 134.444C246.407 131.845 245.13 129.299 243.776 126.778C241.999 126.26 240.116 125.456 238.786 124.191C238.771 124.178 238.762 124.159 238.76 124.14C238.759 124.12 238.765 124.1 238.778 124.085C238.791 124.07 238.81 124.06 238.829 124.059C238.849 124.057 238.869 124.064 238.884 124.077C240.352 125.113 241.971 125.741 243.593 126.443C243.227 125.76 242.857 125.08 242.483 124.403C242.377 124.215 242.633 124.028 242.759 124.211C244.206 126.32 245.513 128.523 246.672 130.805C246.968 128.806 247.063 126.784 246.956 124.766C246.956 124.755 246.961 124.745 246.968 124.737C246.976 124.73 246.986 124.725 246.997 124.725C247.008 124.725 247.018 124.73 247.026 124.737C247.033 124.745 247.038 124.755 247.038 124.766C247.379 126.968 247.355 129.211 246.968 131.404C247.932 133.338 248.815 135.317 249.604 137.324C249.917 136.1 250.328 134.934 250.6 133.718C251.018 131.983 251.155 130.192 251.007 128.414C251.007 128.361 251.076 128.357 251.084 128.414C251.573 131.713 251.174 135.084 249.929 138.177C250.393 139.381 250.832 140.593 251.23 141.808C253.308 148.005 254.539 154.456 254.89 160.984C254.885 161.011 254.871 161.036 254.85 161.054C254.829 161.071 254.802 161.081 254.774 161.081C254.747 161.081 254.72 161.071 254.699 161.054C254.678 161.036 254.664 161.011 254.659 160.984C253.937 154.548 252.562 148.202 250.555 142.045C249.742 139.638 248.835 137.3 247.827 135.007C246.2 134.526 244.573 133.869 242.987 133.314C241.401 132.759 239.831 132.147 238.514 131.119C238.506 131.115 238.5 131.11 238.494 131.104C238.489 131.098 238.484 131.091 238.481 131.083C238.479 131.076 238.477 131.067 238.478 131.059C238.478 131.051 238.48 131.043 238.483 131.035C238.487 131.028 238.492 131.021 238.498 131.015C238.504 131.01 238.511 131.005 238.519 131.003C238.526 131 238.535 130.998 238.543 130.999C238.551 130.999 238.559 131.001 238.567 131.005Z"
          fill="#263238"/>
    <path d="M236.002 128.406C237.685 129.006 239.279 129.846 240.963 130.446C241.04 130.474 240.995 130.597 240.918 130.581C239.137 130.213 237.372 129.663 235.936 128.492C235.867 128.459 235.945 128.385 236.002 128.406Z"
          fill="#263238"/>
    <path d="M249.751 124.762C249.751 124.673 249.861 124.62 249.885 124.713C250.349 126.268 250.666 127.92 250.219 129.512C250.215 129.525 250.208 129.536 250.197 129.544C250.186 129.553 250.173 129.557 250.16 129.557C250.146 129.557 250.133 129.553 250.122 129.544C250.112 129.536 250.104 129.525 250.101 129.512C250.019 127.904 250.101 126.341 249.751 124.762Z"
          fill="#263238"/>
    <path d="M242.78 121.176C243.319 121.949 243.577 122.883 243.512 123.824C243.512 123.885 243.414 123.918 243.398 123.848C243.191 122.959 242.849 122.147 242.585 121.278C242.579 121.253 242.582 121.228 242.593 121.205C242.603 121.182 242.621 121.163 242.643 121.152C242.666 121.14 242.691 121.136 242.716 121.14C242.74 121.145 242.763 121.157 242.78 121.176Z"
          fill="#263238"/>
    <path d="M275.314 143.457C274.5 146.023 272.589 149.577 269.551 149.606C267.583 149.626 265.603 149.389 263.626 149.365C261.516 149.328 259.397 149.336 257.286 149.463C257.115 149.463 257.538 143.11 262.622 140.013C264.041 139.149 265.782 138.871 267.396 138.52C269.246 138.083 271.144 137.885 273.045 137.933C274.208 137.978 275.18 138.226 275.594 139.426C276.009 140.625 275.696 142.233 275.314 143.457Z"
          fill="#FF725E"/>
    <path d="M273.122 140.237C271.902 140.555 270.641 140.923 269.405 141.318C269.726 140.965 270.067 140.629 270.426 140.315C270.959 139.87 271.544 139.499 272.114 139.127C272.162 139.095 272.114 139.005 272.073 139.03C270.871 139.53 269.833 140.359 269.076 141.42C267.534 141.918 266.005 142.473 264.533 143.077C263.516 143.495 262.541 144.01 261.622 144.615C261.919 143.972 262.271 143.357 262.675 142.775C263.35 141.902 264.261 141.412 265.143 140.788C265.161 140.778 265.174 140.761 265.179 140.741C265.185 140.721 265.182 140.7 265.172 140.682C265.161 140.664 265.145 140.651 265.125 140.646C265.105 140.64 265.084 140.643 265.066 140.653C264.143 141.055 263.314 141.645 262.631 142.387C261.949 143.129 261.429 144.006 261.105 144.962C260.046 145.722 259.078 146.604 258.222 147.589C254.863 151.416 252.215 156.512 252.203 161.714C252.203 161.837 252.402 161.873 252.427 161.743C253.288 156.645 255.502 151.875 258.836 147.932C259.076 147.651 259.324 147.381 259.576 147.116C260.495 146.99 261.422 146.92 262.349 146.908C263.431 146.908 264.505 147.067 265.603 147.157C267.376 147.3 269.336 147.32 270.938 146.427C271.007 146.386 270.938 146.263 270.881 146.292C267.315 147.593 263.561 145.941 259.999 146.72C261.53 145.257 263.324 144.1 265.286 143.309L265.615 143.175C267.905 143.452 270.32 144.052 272.549 143.305C272.614 143.281 272.589 143.179 272.52 143.199C270.365 143.738 268.299 143.061 266.176 142.95C268.49 142.049 270.849 141.318 273.171 140.429C273.329 140.351 273.334 140.184 273.122 140.237Z"
          fill="#263238"/>
    <path d="M274.13 142.497C273.026 142.644 271.914 142.729 270.8 142.75C270.793 142.75 270.787 142.752 270.783 142.757C270.778 142.761 270.775 142.768 270.775 142.774C270.775 142.781 270.778 142.787 270.783 142.791C270.787 142.796 270.793 142.799 270.8 142.799C271.92 143.005 273.074 142.931 274.159 142.582C274.212 142.566 274.187 142.489 274.13 142.497Z"
          fill="#263238"/>
    <path d="M266.606 140.294C265.991 140.573 265.433 140.963 264.959 141.445C264.902 141.498 264.98 141.6 265.041 141.555C265.321 141.351 265.61 141.147 265.899 140.968C266.179 140.814 266.451 140.645 266.712 140.462C266.728 140.445 266.738 140.424 266.74 140.401C266.742 140.379 266.737 140.356 266.725 140.336C266.712 140.317 266.694 140.303 266.673 140.295C266.651 140.287 266.628 140.287 266.606 140.294Z"
          fill="#263238"/>
    <path d="M248.673 148.567C248.71 148.653 248.588 148.731 248.543 148.645C248.535 148.659 248.524 148.671 248.51 148.68C248.497 148.689 248.482 148.695 248.466 148.698C246.421 149.187 244.349 149.55 242.26 149.783C240.581 149.934 238.645 150.028 237.173 149.049C235.184 147.723 233.871 144.181 234.948 141.929C236.221 139.257 240.064 140.705 241.988 141.656C244.951 143.108 247.316 145.552 248.673 148.567Z"
          fill="#FF725E"/>
    <path d="M250.161 149.805C249.042 148.719 247.798 147.77 246.456 146.977C245.493 145.441 244.212 144.13 242.699 143.134C242.625 143.081 242.564 143.199 242.63 143.248C243.831 144.215 244.897 145.34 245.797 146.594C244.303 145.773 242.751 145.064 241.153 144.472C240.582 143.409 239.714 142.536 238.656 141.959C238.636 141.959 238.608 141.979 238.628 141.996C239.504 142.659 240.266 143.461 240.885 144.37C239.937 144.015 238.986 143.685 238.038 143.371C237.953 143.342 237.92 143.473 238.002 143.501C239.702 144.166 241.434 144.868 243.118 145.68C241.065 146.002 238.974 145.995 236.924 145.66C236.867 145.66 236.843 145.733 236.9 145.749C239.04 146.383 241.313 146.417 243.471 145.847C244.542 146.37 245.582 146.955 246.586 147.598C245.742 147.531 244.892 147.601 244.069 147.806C242.617 148.146 241.131 148.314 239.641 148.307C239.584 148.307 239.571 148.401 239.641 148.409C242.207 148.854 244.638 147.683 247.184 148.001C249.998 149.918 252.246 152.559 253.691 155.647C254.764 157.834 255.346 160.156 256.212 162.416C256.22 162.434 256.235 162.448 256.252 162.456C256.27 162.464 256.29 162.466 256.309 162.46C256.327 162.455 256.344 162.443 256.354 162.427C256.365 162.41 256.369 162.391 256.367 162.371C255.61 157.895 253.398 152.999 250.161 149.805Z"
          fill="#263238"/>
    <path d="M242.414 143.692C242.247 143.382 242.025 143.105 241.759 142.876C241.543 142.64 241.285 142.446 240.999 142.305C240.974 142.305 240.958 142.329 240.974 142.35C241.186 142.586 241.479 142.758 241.706 142.994C241.934 143.231 242.113 143.496 242.357 143.72C242.362 143.724 242.369 143.726 242.375 143.727C242.381 143.727 242.388 143.726 242.394 143.723C242.4 143.72 242.404 143.715 242.408 143.71C242.412 143.705 242.414 143.698 242.414 143.692Z"
          fill="#263238"/>
    <path d="M238.18 145.077C237.798 144.983 237.396 144.987 237.009 144.909C236.625 144.816 236.246 144.702 235.875 144.567C235.864 144.566 235.854 144.568 235.845 144.573C235.836 144.579 235.829 144.587 235.825 144.596C235.821 144.606 235.82 144.616 235.823 144.626C235.825 144.636 235.83 144.646 235.838 144.652C236.538 145.086 237.361 145.277 238.18 145.195C238.193 145.191 238.205 145.184 238.213 145.173C238.221 145.162 238.226 145.149 238.226 145.136C238.226 145.122 238.221 145.109 238.213 145.098C238.205 145.088 238.193 145.08 238.18 145.077Z"
          fill="#263238"/>
    <path d="M260.743 156.863L260.405 160.703L259.262 173.673H249.14L247.709 160.703L247.29 156.863H260.743Z"
          fill="#455A64"/>
    <path d="M260.743 156.863L260.405 160.703H247.709L247.29 156.863H260.743Z" fill="#263238"/>
    <path d="M261.748 155.814H246.286V158.932H261.748V155.814Z" fill="#455A64"/>
    <path d="M243.289 65.2715H61.7119V90.1268H243.289V65.2715Z" fill="white"/>
    <path d="M243.492 90.3317H61.5088V65.0684H243.492V90.3317ZM61.9155 89.9237H243.085V65.4764H61.9155V89.9237Z"
          fill="#C7C7C7"/>
    <path d="M243.289 65.2715H218.515V90.1268H243.289V65.2715Z" fill="#FF725E"/>
    <path d="M238.754 84.6689L236.465 86.407L232.227 80.7847L230.678 78.7447C230.996 78.6209 231.294 78.4519 231.564 78.2429C232.082 77.8446 232.488 77.3171 232.74 76.7129L234.387 78.8916L238.754 84.6689Z"
          fill="white"/>
    <path d="M234.241 71.4448C233.516 70.4959 232.537 69.7746 231.417 69.366C230.298 68.9573 229.085 68.8784 227.922 69.1384C226.76 69.3985 225.695 69.9867 224.855 70.8337C224.014 71.6807 223.433 72.7512 223.179 73.9189C222.925 75.0866 223.009 76.3028 223.421 77.4241C223.834 78.5455 224.557 79.5251 225.506 80.2476C226.455 80.97 227.59 81.4051 228.777 81.5016C229.965 81.5981 231.155 81.3519 232.207 80.7921C233.064 80.3301 233.802 79.6768 234.367 78.8826C235.14 77.7919 235.545 76.4813 235.523 75.1429C235.5 73.8045 235.051 72.5085 234.241 71.4448ZM231.557 78.2339C231.287 78.4429 230.988 78.6119 230.67 78.7357C229.797 79.0813 228.826 79.0817 227.953 78.7368C227.08 78.392 226.37 77.7275 225.966 76.8776C225.562 76.0277 225.495 75.0558 225.778 74.1581C226.061 73.2604 226.672 72.5038 227.49 72.0412C228.307 71.5785 229.269 71.4443 230.181 71.6656C231.093 71.8869 231.887 72.4472 232.404 73.2333C232.92 74.0195 233.12 74.9729 232.963 75.9011C232.805 76.8293 232.303 77.663 231.557 78.2339Z"
          fill="white"/>
    <path d="M68.2224 70.1602H66.8926V85.2439H68.2224V70.1602Z" fill="#263238"/>
    <path d="M155.672 99.769L158.222 105.946L155.676 107.003L153.114 100.785L148.909 104.057V86.6641L161.044 98.9653L155.672 99.769Z"
          fill="#263238"/>
    <path d="M149.055 84.3501C148.915 83.9817 148.846 83.5898 148.852 83.1955C148.844 82.8023 148.913 82.4114 149.055 82.0449C149.199 82.4109 149.269 82.8022 149.259 83.1955C149.267 83.59 149.198 83.9823 149.055 84.3501Z"
          fill="#263238"/>
    <path d="M147.075 85.175C146.716 85.0145 146.392 84.7859 146.119 84.5018C145.834 84.2301 145.606 83.9041 145.448 83.543C146.166 83.8768 146.742 84.455 147.075 85.175Z"
          fill="#263238"/>
    <path d="M146.254 87.162C145.888 87.3026 145.499 87.3718 145.107 87.366C144.714 87.3742 144.323 87.3049 143.956 87.162C144.322 87.0172 144.714 86.9478 145.107 86.958C145.499 86.9502 145.888 87.0195 146.254 87.162Z"
          fill="#263238"/>
    <path d="M147.075 89.1484C146.915 89.5074 146.689 89.8328 146.408 90.1072C146.135 90.3924 145.809 90.6211 145.448 90.7804C145.607 90.4186 145.835 90.0915 146.119 89.8176C146.393 89.536 146.717 89.3089 147.075 89.1484Z"
          fill="#263238"/>
    <path d="M151.857 87.1619C152.224 87.019 152.615 86.9497 153.008 86.9579C153.4 86.9481 153.79 87.0175 154.155 87.1619C153.79 87.3044 153.4 87.3737 153.008 87.3659C152.615 87.3721 152.225 87.3029 151.857 87.1619Z"
          fill="#263238"/>
    <path d="M151.036 85.175C151.372 84.4573 151.947 83.8799 152.663 83.543C152.327 84.2607 151.752 84.838 151.036 85.175Z"
          fill="#263238"/>
    <path d="M93.2449 175.265C92.2893 175.587 64.9084 175.673 63.8633 175.024C63.4566 174.78 63.2167 170.777 63.0499 165.934C63.0174 164.89 62.9849 163.809 62.9645 162.711L60.7441 148.06L79.0441 147.941L80.7725 162.597L80.7033 165.824C80.7033 165.824 91.2035 170.492 92.273 171.336C93.3425 172.181 94.2006 174.939 93.2449 175.265Z"
          fill="#F7A9A0"/>
    <path d="M93.2441 175.266C92.2884 175.588 64.9076 175.674 63.8624 175.025C63.3785 174.723 63.1142 168.881 62.9678 162.712L80.7798 162.598L80.7106 165.825C80.7106 165.825 91.2108 170.492 92.2803 171.337C93.3498 172.182 94.1998 174.94 93.2441 175.266Z"
          fill="white"/>
    <path d="M93.2448 175.265C92.2891 175.588 64.9083 175.673 63.8631 175.025C63.4565 174.78 63.2165 170.777 63.0498 165.934L80.7073 165.824C80.7073 165.824 91.2074 170.492 92.2769 171.336C93.3465 172.181 94.2005 174.939 93.2448 175.265Z"
          fill="#FF725E"/>
    <path d="M92.8497 174.167C88.2585 174.069 69.7348 174.114 65.1964 174.367C65.1598 174.367 65.1598 174.392 65.1964 174.396C69.747 174.591 88.2707 174.396 92.8497 174.241C92.9473 174.236 92.9473 174.167 92.8497 174.167Z"
          fill="#263238"/>
    <path d="M90.5154 170.353C90.005 170.34 89.4974 170.434 89.0253 170.629C88.5533 170.824 88.1272 171.117 87.7745 171.487C87.1359 172.142 86.7721 173.019 86.7578 173.935C86.7578 173.96 86.8066 173.964 86.8107 173.935C86.9635 173.022 87.4071 172.184 88.075 171.545C88.743 170.907 89.5992 170.503 90.5154 170.394C90.5181 170.391 90.5203 170.388 90.5217 170.384C90.5232 170.381 90.524 170.377 90.524 170.373C90.524 170.369 90.5232 170.366 90.5217 170.362C90.5203 170.359 90.5181 170.355 90.5154 170.353Z"
          fill="#263238"/>
    <path d="M82.4926 166.273C80.6545 166.273 78.5276 166.914 77.3889 168.424C77.3483 168.485 77.4296 168.546 77.4825 168.517C79.087 167.667 80.7775 166.992 82.5251 166.502C82.5501 166.492 82.5711 166.475 82.5847 166.451C82.5983 166.428 82.6036 166.401 82.5998 166.375C82.596 166.348 82.5834 166.324 82.5639 166.305C82.5444 166.287 82.5193 166.276 82.4926 166.273Z"
          fill="#263238"/>
    <path d="M83.9113 166.823C82.0732 166.802 79.9463 167.463 78.8117 168.973C78.767 169.03 78.8483 169.095 78.9053 169.067C80.5073 168.214 82.1967 167.538 83.9439 167.051C83.9689 167.042 83.9899 167.024 84.0035 167.001C84.017 166.978 84.0224 166.95 84.0186 166.924C84.0148 166.897 84.0021 166.873 83.9826 166.854C83.9631 166.836 83.938 166.825 83.9113 166.823Z"
          fill="#263238"/>
    <path d="M85.3309 167.374C83.4928 167.353 81.3659 168.01 80.2313 169.524C80.1865 169.581 80.272 169.642 80.3248 169.613C81.928 168.763 83.6171 168.088 85.3634 167.598C85.3902 167.591 85.4134 167.574 85.4286 167.55C85.4438 167.527 85.45 167.499 85.446 167.471C85.442 167.444 85.4281 167.419 85.4069 167.401C85.3857 167.383 85.3587 167.373 85.3309 167.374Z"
          fill="#263238"/>
    <path d="M86.7539 167.922C84.9158 167.922 82.7889 168.562 81.6502 170.076C81.6055 170.133 81.6909 170.194 81.7438 170.166C83.3483 169.316 85.0388 168.64 86.7864 168.15C86.8114 168.141 86.8324 168.123 86.846 168.1C86.8596 168.077 86.8649 168.05 86.8611 168.023C86.8573 167.997 86.8447 167.972 86.8252 167.954C86.8057 167.935 86.7806 167.924 86.7539 167.922Z"
          fill="#263238"/>
    <path d="M66.3437 169.99C64.2819 169.99 64.3104 173.218 66.3641 173.201C68.4177 173.185 68.4096 169.974 66.3437 169.99Z"
          fill="#263238"/>
    <path d="M84.4607 161.348C83.5254 160.576 82.3583 161.348 81.7889 162.164C80.8351 163.56 80.2643 165.184 80.1338 166.872C80.1337 166.879 80.1352 166.886 80.1381 166.893C80.1411 166.899 80.1454 166.905 80.1508 166.91C80.1563 166.914 80.1627 166.918 80.1695 166.92C80.1764 166.922 80.1837 166.922 80.1907 166.921C80.1983 166.956 80.2139 166.988 80.2363 167.016C80.2586 167.044 80.2872 167.066 80.3196 167.081C80.352 167.095 80.3874 167.102 80.4229 167.101C80.4585 167.099 80.4931 167.089 80.5242 167.072C81.8296 166.158 83.3343 165.346 84.3225 164.057C84.8999 163.298 85.3432 162.078 84.4607 161.348ZM82.22 165.273C81.5897 165.738 80.939 166.166 80.3249 166.656C80.6503 165.738 80.9349 164.807 81.3497 163.922C81.5445 163.492 81.7673 163.075 82.0167 162.674C82.4233 162.066 84.2127 160.519 84.4038 162.523C84.5055 163.628 82.9601 164.718 82.22 165.273Z"
          fill="#263238"/>
    <path d="M75.5705 167.561C77.1728 167.802 78.8238 167.341 80.3936 167.088C80.4279 167.08 80.4598 167.064 80.4866 167.041C80.5133 167.018 80.5342 166.989 80.5473 166.956C80.5605 166.923 80.5656 166.887 80.5622 166.852C80.5588 166.817 80.547 166.783 80.5278 166.753C80.5522 166.753 80.5644 166.7 80.5278 166.676C79.2681 165.548 77.7355 164.771 76.0829 164.424C75.115 164.24 73.7446 164.505 73.6063 165.709C73.4721 166.847 74.6392 167.423 75.5705 167.561ZM74.4603 166.517C73.2118 164.938 75.5746 164.803 76.2822 164.966C76.7389 165.081 77.1873 165.227 77.6242 165.403C78.5221 165.776 79.4003 166.196 80.2553 166.66C79.4745 166.733 78.71 166.876 77.9332 166.982C77.0101 167.104 75.1476 167.386 74.4603 166.517Z"
          fill="#263238"/>
    <path d="M33.8467 80.3281C33.8467 80.3281 55.1031 116.612 55.6725 119.157C56.5468 123.07 62.8135 161.7 62.8135 161.7L80.6337 161.377C80.6337 161.377 78.2425 127.619 74.6313 116.391C72.0327 108.301 54.5216 81.1033 54.5216 81.1033L33.8467 80.3281Z"
          fill="#F7A9A0"/>
    <path d="M52.6388 178.297C51.6343 178.367 24.4649 171.178 23.619 170.276C23.5796 170.221 23.557 170.156 23.554 170.088C23.4442 169.199 24.835 165.849 25.811 161.565C25.872 161.292 26.3844 159.99 27.1001 158.236C29.0684 153.409 32.586 145.127 32.586 145.127L50.0727 149.615L43.7775 162.846L42.895 165.947C42.895 165.947 51.8661 173.144 52.6835 174.238C53.5009 175.331 53.6432 178.244 52.6388 178.297Z"
          fill="#F7A9A0"/>
    <path d="M52.6388 178.296C51.6343 178.365 24.4649 171.176 23.619 170.274C23.5796 170.22 23.557 170.154 23.554 170.087C23.4442 169.197 24.835 165.848 25.811 161.564C25.872 161.29 26.3844 159.989 27.1001 158.234L43.7938 162.861L42.9113 165.962C42.9113 165.962 51.8824 173.159 52.6998 174.252C53.5172 175.346 53.6432 178.243 52.6388 178.296Z"
          fill="white"/>
    <path d="M52.6389 178.297C51.6304 178.366 24.4651 171.177 23.6192 170.275C23.2979 169.933 24.0015 166.244 25.8071 161.564L42.9115 165.963C42.9115 165.963 51.8825 173.16 52.6999 174.249C53.5173 175.339 53.6434 178.243 52.6389 178.297Z"
          fill="#FF725E"/>
    <path d="M52.533 177.15C48.1166 175.885 30.1948 171.193 25.7337 170.279C25.6971 170.279 25.689 170.279 25.7337 170.308C30.081 171.658 48.0434 176.199 52.5249 177.223C52.6103 177.244 52.6266 177.174 52.533 177.15Z"
          fill="#263238"/>
    <path d="M51.2397 172.867C50.7481 172.727 50.2331 172.691 49.727 172.762C49.221 172.832 48.7349 173.006 48.2995 173.275C47.505 173.745 46.9222 174.505 46.6729 175.396C46.6729 175.425 46.7135 175.437 46.7257 175.396C47.1034 174.553 47.7438 173.856 48.5505 173.409C49.3572 172.962 50.2867 172.791 51.1991 172.92C51.2061 172.925 51.2149 172.927 51.2237 172.926C51.2325 172.925 51.2404 172.921 51.2458 172.914C51.2512 172.906 51.2536 172.898 51.2525 172.889C51.2513 172.88 51.2467 172.872 51.2397 172.867Z"
          fill="#263238"/>
    <path d="M44.5177 166.872C42.7487 166.382 40.5242 166.464 39.0399 167.647C38.983 167.692 39.0399 167.774 39.109 167.761C40.8752 167.349 42.6802 167.128 44.4933 167.1C44.5194 167.097 44.5436 167.085 44.562 167.066C44.5804 167.047 44.5919 167.022 44.5947 166.996C44.5975 166.969 44.5915 166.943 44.5775 166.92C44.5635 166.898 44.5425 166.881 44.5177 166.872Z"
          fill="#263238"/>
    <path d="M45.7542 167.766C43.9811 167.281 41.7566 167.358 40.2723 168.546C40.2154 168.591 40.2723 168.672 40.3414 168.656C42.1077 168.244 43.9126 168.022 45.7257 167.995C45.7521 167.992 45.7768 167.98 45.7957 167.962C45.8146 167.943 45.8267 167.918 45.83 167.892C45.8333 167.865 45.8276 167.839 45.8138 167.816C45.8001 167.793 45.779 167.776 45.7542 167.766Z"
          fill="#263238"/>
    <path d="M46.9865 168.659C45.2135 168.173 42.989 168.251 41.5087 169.438C41.4518 169.483 41.5087 169.565 41.5738 169.548C43.3414 169.137 45.1477 168.915 46.9621 168.887C46.9883 168.884 47.0125 168.872 47.0309 168.853C47.0493 168.834 47.0608 168.809 47.0636 168.783C47.0664 168.756 47.0603 168.73 47.0464 168.708C47.0324 168.685 47.0113 168.668 46.9865 168.659Z"
          fill="#263238"/>
    <path d="M48.2229 169.557C46.4499 169.068 44.2254 169.149 42.7411 170.333C42.6841 170.378 42.7411 170.459 42.8102 170.447C44.5759 170.032 46.3811 169.809 48.1945 169.782C48.2219 169.781 48.2482 169.771 48.2687 169.753C48.2891 169.734 48.3023 169.709 48.3058 169.682C48.3092 169.655 48.3028 169.627 48.2875 169.604C48.2723 169.581 48.2494 169.565 48.2229 169.557Z"
          fill="#263238"/>
    <path d="M27.9587 166.342C25.9619 165.828 25.1649 168.941 27.1453 169.455C29.1258 169.969 29.9595 166.873 27.9587 166.342Z"
          fill="#263238"/>
    <path d="M47.6733 162.613C46.9657 161.63 45.64 162.067 44.8877 162.699C43.6072 163.808 42.6419 165.236 42.0898 166.84C42.0873 166.847 42.0864 166.855 42.0872 166.862C42.088 166.869 42.0904 166.877 42.0943 166.883C42.0982 166.889 42.1035 166.894 42.1098 166.898C42.1161 166.902 42.1231 166.905 42.1305 166.906C42.1305 167.044 42.2606 167.191 42.4151 167.134C43.9076 166.583 45.5709 166.183 46.8519 165.192C47.6001 164.613 48.3403 163.544 47.6733 162.613ZM44.5095 165.837C43.7815 166.122 43.0455 166.375 42.3257 166.689C42.8474 165.867 43.4107 165.072 44.0133 164.307C44.3097 163.94 44.6304 163.594 44.9731 163.27C45.5139 162.785 47.6449 161.748 47.3195 163.735C47.1406 164.833 45.3757 165.494 44.5095 165.837Z"
          fill="#263238"/>
    <path d="M37.5025 166.351C38.9869 166.995 40.6989 166.967 42.2809 167.126C42.3163 167.127 42.3514 167.119 42.3833 167.104C42.4153 167.088 42.4431 167.066 42.4645 167.037C42.486 167.009 42.5004 166.976 42.5067 166.941C42.5129 166.906 42.5108 166.87 42.5005 166.836C42.5075 166.834 42.5139 166.83 42.5191 166.824C42.5243 166.819 42.5283 166.812 42.5306 166.805C42.533 166.798 42.5337 166.791 42.5327 166.783C42.5317 166.776 42.529 166.769 42.5249 166.763C41.5907 165.347 40.3018 164.203 38.7876 163.446C37.9011 163.038 36.5103 162.932 36.067 164.058C35.6237 165.184 36.6323 165.975 37.5025 166.351ZM36.6892 165.057C35.8759 163.213 38.202 163.686 38.8445 164.025C39.2581 164.25 39.6549 164.505 40.032 164.788C40.8064 165.376 41.5489 166.005 42.2565 166.673C41.4838 166.546 40.7071 166.489 39.9303 166.391C39.0072 166.277 37.1365 166.057 36.6892 165.057Z"
          fill="#263238"/>
    <path d="M44.2782 161.841L27.4463 157.407C27.4463 157.407 43.3063 119.438 43.1599 116.843C43.0216 114.542 30.5817 96.2636 29.3088 90.4007C27.9709 84.244 31.0575 78.7074 33.9652 75.3047L54.5222 81.1187C54.5222 81.1187 52.8955 84.6846 49.878 86.9408C49.878 86.9408 62.7938 108.565 63.1272 115.701C63.4607 122.837 44.2782 161.841 44.2782 161.841Z"
          fill="#F7A9A0"/>
    <path d="M78.8246 141.576C73.6803 143.547 66.9418 145.656 60.3172 146.411C59.5405 141.691 58.6905 136.53 57.9219 131.964C55.9415 136.742 53.652 141.887 51.521 146.534C45.315 146.129 39.1592 145.153 33.1316 143.616C37.67 132.47 43.2535 118.398 43.16 116.852C43.0217 114.555 30.5818 96.2722 29.3089 90.4133C27.971 84.2525 31.0576 78.7159 33.9652 75.2969L54.5222 81.1109C54.5222 81.1109 72.0333 108.312 74.6319 116.399C76.344 121.719 77.7836 132.123 78.8246 141.576Z"
          fill="#263238"/>
    <path d="M33.9648 75.2891L56.0671 81.4091C56.0671 81.4091 72.0207 109.275 74.2167 113.833C77.0389 119.667 78.9218 136.897 78.9218 136.897C68.4339 144.494 34.4447 142.838 32.879 141.985C32.879 141.985 42.5251 118.566 42.5699 117.023C42.6553 114.212 27.9787 96.8763 28.4179 86.5988C28.7229 79.4547 33.9648 75.2891 33.9648 75.2891Z"
          fill="#37474F"/>
    <path d="M54.575 98.7082C54.457 96.6192 54.3106 94.5262 54.1032 92.4413C54.0987 92.4193 54.0867 92.3995 54.0693 92.3853C54.0519 92.371 54.0301 92.3633 54.0077 92.3633C53.9852 92.3633 53.9635 92.371 53.9461 92.3853C53.9287 92.3995 53.9167 92.4193 53.9121 92.4413C53.9894 94.5344 54.1276 96.6274 54.2944 98.7123C54.4611 100.797 54.6766 102.886 54.8271 104.979C54.8271 105.02 54.8962 105.02 54.8922 104.979C54.758 102.894 54.697 100.801 54.575 98.7082Z"
          fill="#263238"/>
    <path d="M60.6343 110.784C60.3577 110.184 60.0527 109.593 59.7518 109.005C59.4509 108.418 59.1703 107.802 58.8734 107.202C58.2526 105.942 57.6371 104.68 57.0271 103.416C56.9946 103.342 56.8685 103.416 56.9011 103.473C57.8744 105.687 58.8232 107.913 59.7477 110.152C60.6017 112.192 61.4801 114.342 61.5574 116.598C61.6428 118.952 60.8335 121.217 60.069 123.404C59.2557 125.701 58.4749 128.002 57.7469 130.34C57.3403 131.653 56.8563 132.959 56.4903 134.293C56.3114 134.942 56.0837 135.578 55.8844 136.223C55.6851 136.868 55.4777 137.577 55.25 138.263C55.25 138.304 55.2947 138.32 55.311 138.263C55.5225 137.671 55.7543 137.092 55.982 136.504C56.2097 135.917 56.4171 135.28 56.6652 134.685C57.1369 133.546 57.5558 132.384 57.9869 131.233C58.8571 128.92 59.6908 126.594 60.5123 124.264C61.3012 122.037 62.1389 119.752 62.2406 117.365C62.3341 115.056 61.5696 112.849 60.6343 110.784Z"
          fill="#263238"/>
    <path d="M50.6461 35.5822C47.3928 37.6222 45.6563 41.8205 45.6563 41.8205C45.6563 41.8205 42.1265 45.6394 42.3054 48.1772C42.3423 48.8968 42.5525 49.5967 42.918 50.217C43.2834 50.8373 43.7932 51.3596 44.4038 51.739L44.4445 50.364C44.4445 50.364 44.9203 52.249 47.6165 53.575C50.3127 54.901 54.2817 54.8724 56.4655 54.3176C57.7604 53.9972 58.9502 53.3449 59.9181 52.4245L58.7551 54.1748C59.7057 54.2831 60.6682 54.1536 61.5567 53.7976C62.4452 53.4416 63.2319 52.8703 63.8465 52.1348C66.1523 49.5521 62.3825 44.24 62.1873 43.2363C61.9921 42.2326 62.9763 35.4557 55.7335 35.0273C55.7335 35.0151 52.8665 34.1705 50.6461 35.5822Z"
          fill="#263238"/>
    <path d="M43.4324 51.3391C42.7808 50.6776 42.2969 49.8688 42.0213 48.9808C41.7636 48.0816 41.8152 47.1216 42.1677 46.2554C42.662 45.2569 43.3315 44.3558 44.1441 43.5952C44.9249 42.7792 45.7707 41.9877 46.5434 41.1472C46.5841 41.0983 46.5149 41.0371 46.4661 41.0697C45.6807 41.661 44.9298 42.2972 44.2173 42.9751C43.5077 43.579 42.8703 44.2636 42.3181 45.0151C41.8088 45.709 41.5069 46.534 41.4479 47.3937C41.4363 48.1008 41.5939 48.8004 41.9074 49.4337C42.286 50.1618 42.7836 50.821 43.3795 51.384C43.3816 51.3894 43.385 51.3943 43.3894 51.3981C43.3938 51.402 43.399 51.4048 43.4046 51.4062C43.4103 51.4076 43.4162 51.4077 43.4219 51.4064C43.4275 51.4051 43.4328 51.4024 43.4373 51.3986C43.4417 51.3949 43.4452 51.3901 43.4474 51.3847C43.4497 51.3793 43.4506 51.3734 43.4501 51.3676C43.4496 51.3618 43.4478 51.3562 43.4447 51.3512C43.4416 51.3462 43.4374 51.3421 43.4324 51.3391Z"
          fill="#263238"/>
    <path d="M65.1194 49.2138C64.8307 46.5741 62.9804 44.5218 62.1223 42.082C61.6587 40.7601 61.3862 39.3525 60.6664 38.1326C60.6461 38.0999 60.5932 38.1326 60.6095 38.1693C61.1788 39.2464 61.3822 40.4378 61.7116 41.6006C62.0764 42.7641 62.5545 43.8888 63.139 44.9584C64.1516 46.9372 65.3675 49.2832 64.5257 51.5435C64.1394 52.5839 63.2406 53.6325 62.0857 53.7222C62.041 53.7222 62.0491 53.7998 62.0857 53.7916C62.5589 53.7152 63.0116 53.5431 63.4164 53.2857C63.8212 53.0283 64.1695 52.691 64.4403 52.2942C65.026 51.3817 65.2669 50.2891 65.1194 49.2138Z"
          fill="#263238"/>
    <path d="M65.0667 49.8985C65.3555 48.9881 65.3555 48.0101 65.0667 47.0996C64.7156 46.2209 64.177 45.4299 63.4888 44.7822C62.7446 43.9988 61.9516 43.24 61.6019 42.1914C61.5971 42.1854 61.5905 42.1811 61.583 42.179C61.5756 42.177 61.5677 42.1774 61.5605 42.1801C61.5533 42.1828 61.5472 42.1877 61.5429 42.1941C61.5387 42.2006 61.5365 42.2082 61.5368 42.2159C62.0736 43.9417 63.5905 45.0311 64.4364 46.5692C65.4002 48.3277 64.9244 50.4616 63.6596 51.9385C62.8659 52.8409 61.8691 53.5403 60.752 53.9785C60.752 53.9785 60.752 54.0152 60.752 54.0071C62.647 53.2727 64.477 51.9304 65.0667 49.8985Z"
          fill="#263238"/>
    <path d="M53.5583 56.8067C55.4249 60.9356 64.884 66.6272 69.3166 67.2433C72.5049 67.684 82.1917 67.8431 85.5101 67.3372C89.4019 66.7456 86.4373 56.2069 84.1356 56.4762C77.816 57.2106 72.452 58.0307 70.7643 58.0307C68.7066 58.0307 57.5599 54.4321 56.2179 53.9262C52.932 52.6859 52.4969 54.4648 53.5583 56.8067Z"
          fill="#F7A9A0"/>
    <path d="M82.96 56.5907C86.807 56.0888 91.565 55.2239 95.5951 56.9456C96.0469 57.124 96.4252 57.4504 96.6687 57.8718C98.4865 58.6103 98.702 59.6955 98.702 59.6955C100.186 60.9195 100.239 62.0375 100.239 62.0375C100.239 62.0375 102.362 62.9269 102.041 64.3059C101.683 65.8523 98.7874 64.3059 96.6443 64.4283C91.7643 64.7262 84.9445 66.5173 83.5496 66.7417L82.96 56.5907Z"
          fill="#F7A9A0"/>
    <path d="M91.3248 61.1465C92.7487 61.0419 94.1781 61.0351 95.603 61.1261C97.1531 61.3245 98.6864 61.6381 100.19 62.0645C100.2 62.0678 100.21 62.067 100.22 62.0624C100.229 62.0579 100.236 62.0498 100.239 62.0401C100.242 62.0303 100.241 62.0197 100.237 62.0105C100.232 62.0013 100.224 61.9944 100.215 61.9911C97.3888 60.8769 94.3125 60.5622 91.3208 61.0813C91.2557 61.0935 91.2557 61.1465 91.3248 61.1465Z"
          fill="#263238"/>
    <path d="M90.7189 58.226C92.1179 58.226 94.5741 58.2954 98.6855 59.7397C98.6855 59.7397 98.714 59.7397 98.6855 59.7152C96.2232 58.4627 93.4617 57.9231 90.7108 58.1567C90.6335 58.1648 90.6295 58.2219 90.7189 58.226Z"
          fill="#263238"/>
    <path d="M90.4265 56.6523C92.8014 56.7747 94.2817 57.1582 96.6729 57.8763C96.6729 57.8763 96.6973 57.8559 96.6729 57.8518C94.0458 56.742 92.9641 56.6278 90.4102 56.5625C90.3289 56.5666 90.3329 56.6441 90.4265 56.6523Z"
          fill="#263238"/>
    <path d="M90.8047 65.1621C90.1866 65.4518 90.333 65.7782 91.5164 66.0556C92.6998 66.3331 97.6164 66.4147 97.4375 68.1323C97.2585 69.85 90.333 69.6297 88.3973 69.0177C86.4615 68.4057 83.5498 66.7411 83.5498 66.7411C84.9081 66.5044 88.1451 65.6435 90.8047 65.1621Z"
          fill="#F7A9A0"/>
    <path d="M53.001 57.256C55.1522 60.6547 62.4641 66.3136 62.4641 66.3136L63.5621 64.0411L67.2221 56.5257C67.2221 56.5257 60.4267 54.1634 55.9452 53.0699C55.4178 52.9358 54.8807 52.8431 54.3389 52.7925C51.4475 52.5559 51.1466 54.3347 53.001 57.256Z"
          fill="#FF725E"/>
    <path d="M61.5366 55.1211C61.6018 55.4404 61.6291 55.7664 61.6179 56.0921C61.6156 56.4168 61.5746 56.7401 61.4959 57.055C61.4306 56.7371 61.4033 56.4125 61.4146 56.0881C61.4191 55.7622 61.4601 55.4378 61.5366 55.1211Z"
          fill="white"/>
    <path d="M62.375 59.0592C63.0146 58.9366 63.6728 58.9505 64.3067 59.1C63.9884 59.1654 63.6635 59.1928 63.3388 59.1816C63.014 59.177 62.6907 59.136 62.375 59.0592Z"
          fill="white"/>
    <path d="M52.7324 53.4493C53.0493 53.3838 53.3729 53.3564 53.6962 53.3677C54.0212 53.3703 54.3447 53.4113 54.66 53.4901C54.3417 53.5556 54.0169 53.583 53.6922 53.5717C53.3687 53.5675 53.0467 53.5264 52.7324 53.4493Z"
          fill="white"/>
    <path d="M57.9702 57.4805C57.7891 57.7514 57.5776 58.0005 57.3399 58.223C57.1083 58.4517 56.8503 58.6517 56.5713 58.8187C56.937 58.2789 57.4123 57.8229 57.9662 57.4805H57.9702Z"
          fill="white"/>
    <path d="M61.5773 62.1758C61.2117 62.7142 60.738 63.17 60.1865 63.514C60.365 63.2423 60.5753 62.993 60.8128 62.7715C61.0449 62.5451 61.3013 62.3453 61.5773 62.1758Z"
          fill="white"/>
    <path d="M53.0011 57.256C55.1524 60.6547 62.4643 66.3136 62.4643 66.3136L63.5623 64.0411C60.8701 60.7199 56.714 55.6852 54.3228 52.7925C51.4477 52.5559 51.1467 54.3347 53.0011 57.256Z"
          fill="#263238"/>
    <path d="M61.159 64.7381C61.769 63.355 64.4612 57.8021 65.124 56.6148C65.1688 56.5332 65.2298 56.5414 65.1932 56.6148C64.013 59.3932 62.6853 62.1062 61.216 64.7422C61.1997 64.7911 61.1468 64.7707 61.159 64.7381Z"
          fill="#263238"/>
    <path d="M58.9666 62.5541C59.0358 63.2518 59.0642 63.9699 59.0642 64.688C59.0624 64.6608 59.0624 64.6335 59.0642 64.6064C59.1456 64.2229 59.2269 63.8271 59.3408 63.4517C59.3408 63.4313 59.3814 63.4313 59.3814 63.4517C59.3528 63.85 59.2874 64.2447 59.1862 64.6309C59.1401 64.8158 59.0913 64.9994 59.0398 65.1817C59.0398 65.4999 59.0398 65.8181 59.0032 66.1323C58.9626 66.7321 58.7592 69.2861 58.6901 69.7227C58.6901 69.8125 58.5722 69.8084 58.564 69.7227C58.5315 69.2617 58.6332 66.6178 58.6413 66.0181C58.6648 64.8609 58.7517 63.7058 58.9016 62.5582C58.9097 62.5215 58.9666 62.5297 58.9666 62.5541Z"
          fill="#263238"/>
    <path d="M57.5107 83.3109C57.5107 83.3109 47.9499 83.3517 31.1221 77.8641C31.1221 77.8641 42.8137 57.9251 49.5603 53.3841C52.6347 51.3196 54.9446 52.2825 56.5916 54.4571C56.9983 54.9998 61.4472 64.4939 61.3333 67.4193C61.2317 70.0019 58.5965 72.2786 58.5965 72.2786L57.5107 83.3109Z"
          fill="#FF725E"/>
    <path d="M53.6187 61.3516C53.6886 61.669 53.7227 61.9934 53.7203 62.3185C53.7248 62.6438 53.6906 62.9684 53.6187 63.2855C53.5467 62.9684 53.5125 62.6438 53.517 62.3185C53.5146 61.9934 53.5487 61.669 53.6187 61.3516Z"
          fill="white"/>
    <path d="M50.9956 72.4648C51.0656 72.7823 51.0997 73.1067 51.0973 73.4318C51.1017 73.757 51.0676 74.0816 50.9956 74.3988C50.9236 74.0816 50.8895 73.757 50.8939 73.4318C50.8915 73.1067 50.9256 72.7823 50.9956 72.4648Z"
          fill="white"/>
    <path d="M42.9605 65.5898C43.096 66.2273 43.096 66.8863 42.9605 67.5238C42.8885 67.2066 42.8543 66.882 42.8588 66.5568C42.8564 66.2317 42.8905 65.9073 42.9605 65.5898Z"
          fill="white"/>
    <path d="M57.686 70.9922C57.8216 71.6297 57.8216 72.2886 57.686 72.9261C57.614 72.609 57.5799 72.2844 57.5844 71.9591C57.582 71.634 57.6161 71.3097 57.686 70.9922Z"
          fill="white"/>
    <path d="M47.5801 63.5754C47.8962 63.5032 48.2197 63.469 48.5439 63.4734C48.8681 63.467 49.1919 63.5012 49.5077 63.5754C48.8723 63.7114 48.2155 63.7114 47.5801 63.5754Z"
          fill="white"/>
    <path d="M40.7197 72.1762C41.3565 72.0402 42.0146 72.0402 42.6514 72.1762C42.0146 72.3121 41.3565 72.3121 40.7197 72.1762Z"
          fill="white"/>
    <path d="M51.1221 78.9965C51.7575 78.8605 52.4143 78.8605 53.0497 78.9965C52.4143 79.1325 51.7575 79.1325 51.1221 78.9965Z"
          fill="white"/>
    <path d="M39.0078 77.684C39.6446 77.548 40.3027 77.548 40.9395 77.684C40.3027 77.82 39.6446 77.82 39.0078 77.684Z"
          fill="white"/>
    <path d="M52.5693 54.2231C53.2047 54.0871 53.8615 54.0871 54.4969 54.2231C53.8615 54.3591 53.2047 54.3591 52.5693 54.2231Z"
          fill="white"/>
    <path d="M49.2062 55.4883C48.8519 56.0355 48.3863 56.5012 47.8398 56.8551C48.0125 56.58 48.2173 56.3266 48.4498 56.1003C48.6778 55.8679 48.9316 55.6626 49.2062 55.4883Z"
          fill="white"/>
    <path d="M39.1621 66.2715C38.9873 66.545 38.7827 66.7982 38.5521 67.0263C38.3256 67.2586 38.0732 67.464 37.7998 67.6383C37.9713 67.3624 38.1762 67.1088 38.4098 66.8835C38.6354 66.6501 38.888 66.4447 39.1621 66.2715Z"
          fill="white"/>
    <path d="M55.2336 67.4258C55.0573 67.6994 54.8514 67.9525 54.6195 68.1806C54.3939 68.4139 54.1414 68.6194 53.8672 68.7926C54.2215 68.2454 54.6872 67.7796 55.2336 67.4258Z"
          fill="white"/>
    <path d="M46.0098 75.2227C45.835 75.4962 45.6304 75.7493 45.3998 75.9775C45.1733 76.2098 44.9208 76.4151 44.6475 76.5895C45.0017 76.0436 45.4657 75.5781 46.0098 75.2227Z"
          fill="white"/>
    <path d="M57.8928 58.1562C57.5389 58.7049 57.0732 59.1721 56.5264 59.5271C56.879 58.9789 57.3433 58.5117 57.8887 58.1562H57.8928Z"
          fill="white"/>
    <path d="M58.7102 65.5916C58.4364 65.416 58.1828 65.2108 57.9538 64.9796C57.7222 64.7509 57.5175 64.4962 57.3438 64.2207C57.8916 64.5745 58.3576 65.0419 58.7102 65.5916Z"
          fill="white"/>
    <path d="M36.8887 73.8492C36.3447 73.4938 35.8806 73.0283 35.5264 72.4824C35.8014 72.6544 36.0541 72.86 36.2787 73.0944C36.5113 73.3207 36.7161 73.5741 36.8887 73.8492Z"
          fill="white"/>
    <path d="M57.5186 77.1365C57.2469 76.9598 56.9947 76.7547 56.7663 76.5245C56.5347 76.2958 56.33 76.0412 56.1562 75.7656C56.7016 76.1211 57.1659 76.5883 57.5186 77.1365Z"
          fill="white"/>
    <path d="M45.2053 61.2322C44.6574 60.8785 44.1915 60.411 43.8389 59.8613C44.3867 60.2151 44.8527 60.6825 45.2053 61.2322Z"
          fill="white"/>
    <path d="M48.259 81.9469C47.9844 81.7726 47.7306 81.5672 47.5026 81.3349C47.27 81.1086 47.0652 80.8552 46.8926 80.5801C47.1672 80.7544 47.421 80.9597 47.649 81.1921C47.8784 81.4213 48.0829 81.6743 48.259 81.9469Z"
          fill="white"/>
    <path d="M48.2473 69.4783C47.6994 69.1246 47.2335 68.6571 46.8809 68.1074C47.4287 68.4612 47.8947 68.9286 48.2473 69.4783Z"
          fill="white"/>
    <path d="M47.2867 57.7815C45.7007 62.2328 47.9658 78.5569 50.6458 82.0004C54.6352 87.1208 62.5001 91.8332 65.5094 93.302C66.8189 93.9426 72.7156 84.4933 71.4305 83.6079C68.6774 81.7107 59.8812 77.186 59.137 76.2843C58.3928 75.3827 54.383 66.7453 52.7767 61.886C50.6214 55.3662 48.0838 55.5294 47.2867 57.7815Z"
          fill="#F7A9A0"/>
    <path d="M65.5176 93.3298C69.69 95.7166 77.99 95.3698 79.1206 95.023C80.0884 94.7292 80.5846 94.5701 80.5846 94.5701C82.3251 94.0805 82.7968 93.1095 82.7968 93.1095C82.7968 93.1095 84.9766 93.138 85.2124 91.8202C85.4808 90.3391 82.3658 90.5962 80.5683 89.6782C76.4488 87.5851 71.1784 83.4521 70.0519 82.7422L65.5176 93.3298Z"
          fill="#F7A9A0"/>
    <path d="M74.7165 90.527C75.9147 91.1541 77.1538 91.6993 78.4253 92.159C79.847 92.5713 81.2974 92.8768 82.7644 93.0729C82.7741 93.0729 82.7834 93.0768 82.7903 93.0837C82.7972 93.0906 82.801 93.0999 82.801 93.1096C82.801 93.1194 82.7972 93.1287 82.7903 93.1356C82.7834 93.1425 82.7741 93.1464 82.7644 93.1464C79.8872 93.0672 77.0867 92.1979 74.6677 90.6331C74.6067 90.576 74.6555 90.4944 74.7165 90.527Z"
          fill="#263238"/>
    <path d="M73.094 92.8377C74.314 93.3477 76.4734 94.2289 80.5848 94.5268V94.5513C77.9736 94.7327 75.3635 94.1833 73.0452 92.9641C72.9761 92.9233 73.0127 92.805 73.094 92.8377Z"
          fill="#263238"/>
    <path d="M75.7665 86.8394C75.3354 86.3538 75.5876 86.1254 76.7181 86.3335C77.8486 86.5415 82.1512 88.3163 82.6432 86.7415C83.1353 85.1666 77.0312 82.7634 75.1199 82.5635C73.2086 82.3636 69.9512 82.7145 69.9512 82.7145C71.0451 83.4407 73.6356 85.4195 75.7665 86.8394Z"
          fill="#F7A9A0"/>
    <path d="M51.7198 58.9036C48.9382 53.0407 46.4006 54.5829 46.1566 60.3847C45.9289 65.8152 46.6934 72.4656 46.6934 72.4656L56.7788 69.5647L51.7198 58.9036Z"
          fill="#FF725E"/>
    <path d="M53.6187 61.3516C53.6886 61.669 53.7227 61.9934 53.7203 62.3185C53.7248 62.6438 53.6906 62.9684 53.6187 63.2855C53.5467 62.9684 53.5125 62.6438 53.517 62.3185C53.5146 61.9934 53.5487 61.669 53.6187 61.3516Z"
          fill="white"/>
    <path d="M47.5801 63.5754C47.8962 63.5032 48.2197 63.469 48.5439 63.4734C48.8681 63.467 49.1919 63.5012 49.5077 63.5754C48.8723 63.7114 48.2155 63.7114 47.5801 63.5754Z"
          fill="white"/>
    <path d="M49.2062 55.4883C48.8519 56.0355 48.3863 56.5012 47.8398 56.8551C48.0125 56.58 48.2173 56.3266 48.4498 56.1003C48.6778 55.8679 48.9316 55.6626 49.2062 55.4883Z"
          fill="white"/>
    <path d="M55.2336 67.4258C55.0573 67.6994 54.8514 67.9525 54.6195 68.1806C54.3939 68.4139 54.1414 68.6194 53.8672 68.7926C54.2215 68.2454 54.6872 67.7796 55.2336 67.4258Z"
          fill="white"/>
    <path d="M48.2473 69.4783C47.6994 69.1246 47.2335 68.6571 46.8809 68.1074C47.4287 68.4612 47.8947 68.9286 48.2473 69.4783Z"
          fill="white"/>
    <path d="M52.6873 60.6915C53.0614 61.4626 53.46 62.2215 53.8544 62.9803C53.7853 62.6213 53.7324 62.2582 53.6918 61.891C53.6918 61.8706 53.7121 61.8706 53.7162 61.891C53.7731 62.1766 53.8422 62.4622 53.8951 62.7478C53.9195 62.8865 53.948 63.0252 53.9724 63.1558C53.9724 63.1843 53.9724 63.2129 53.9927 63.2455C54.2977 63.8371 54.6027 64.4287 54.8955 65.0326C55.2412 65.7507 55.5706 66.4769 55.9 67.1991C56.2294 67.9212 56.5425 68.8107 56.9126 69.5451C56.5941 69.6728 56.2647 69.7711 55.9284 69.8388C55.839 69.8715 55.7983 69.7817 55.8878 69.7695C55.9772 69.7572 56.7336 69.4553 56.7418 69.4471C56.4124 68.7168 56.0016 68.0232 55.6519 67.3051C55.3022 66.5871 54.9443 65.8731 54.6108 65.1509C53.9276 63.6821 53.3298 62.1766 52.6548 60.6996C52.6466 60.6874 52.6751 60.6751 52.6873 60.6915Z"
          fill="#263238"/>
    <path d="M45.7383 64.1865C45.8318 64.4884 45.9375 64.7862 46.0107 65.0922C46.0433 65.2187 46.0758 65.3493 46.1043 65.4717C46.0663 64.4272 46.0324 63.38 46.0026 62.3301C46.1449 64.0437 46.2954 65.7573 46.4093 67.475C46.567 69.1184 46.6417 70.7689 46.6329 72.4199C46.9377 72.3467 47.2477 72.2975 47.5601 72.273C47.2279 72.4193 46.8778 72.5208 46.5191 72.575C46.3136 70.859 46.1955 69.1336 46.1653 67.4056C46.1409 66.9364 46.1287 66.4631 46.1083 65.9939C46.0514 65.7002 45.9701 65.4146 45.8928 65.1249C45.8155 64.8352 45.7545 64.5088 45.6895 64.1987C45.7017 64.1783 45.7301 64.1702 45.7383 64.1865Z"
          fill="#263238"/>
    <path d="M47.1079 70.9357C48.5272 70.4298 54.4279 68.5652 55.713 68.247C55.8025 68.2266 55.8391 68.2755 55.7496 68.3123C52.9271 69.36 50.0506 70.2549 47.1324 70.9928C47.0958 70.9928 47.0713 70.952 47.1079 70.9357Z"
          fill="#263238"/>
    <path d="M52.757 51.9675C54.0299 52.1511 55.502 53.118 56.6325 54.7908C57.6289 56.2678 58.5073 58.3445 57.7671 58.7321C56.9131 59.185 55.3271 57.2755 55.3271 57.2755C55.3271 57.2755 55.6281 60.2866 54.0461 60.0703C52.1958 59.8174 50.6098 57.1613 50.3861 55.3906C50.1218 53.5056 50.5325 51.6492 52.757 51.9675Z"
          fill="white"/>
    <path d="M50.8657 53.478C50.9755 53.9227 53.1146 56.7706 55.1317 56.6482C55.7905 56.6074 55.7295 53.0047 55.7295 53.0047L55.7864 52.7354L56.5713 48.9982L52.1711 46.2401L51.5367 45.877C51.5367 45.877 51.3903 46.9133 51.2155 48.2066L51.1911 48.3902C51.1911 48.4637 51.1911 48.533 51.1626 48.6024C51.1341 48.7942 51.1057 48.99 51.0813 49.1899C51.0569 49.3898 51.0447 49.4837 51.0325 49.6428C51.0203 49.8019 50.9999 49.9529 50.9796 50.112C50.8642 51.23 50.8261 52.3547 50.8657 53.478Z"
          fill="#F7A9A0"/>
    <path d="M51.2158 48.2066C51.6041 49.2493 52.2142 50.1946 53.0036 50.9767C53.793 51.7588 54.7427 52.3589 55.7867 52.7354L56.5716 48.9982L52.1715 46.2401L51.5371 45.877C51.5371 45.877 51.3907 46.9214 51.2158 48.2066Z"
          fill="#263238"/>
    <path d="M62.3626 43.7984C62.4276 50.5059 58.4301 51.3015 56.9864 51.3138C55.681 51.3138 51.224 51.1955 50.4798 44.5328C49.7356 37.8702 52.814 35.7159 55.803 35.5323C58.792 35.3487 62.2975 37.0909 62.3626 43.7984Z"
          fill="#F7A9A0"/>
    <path d="M61.2644 42.7921C61.1099 42.7635 60.9716 42.7105 60.8212 42.6697C60.6584 42.6475 60.5072 42.5731 60.3901 42.4575C60.3588 42.4158 60.3418 42.365 60.3418 42.3127C60.3418 42.2604 60.3588 42.2096 60.3901 42.1679C60.4702 42.0993 60.567 42.0534 60.6706 42.0347C60.7742 42.0161 60.8809 42.0254 60.9798 42.0618C61.1909 42.1068 61.3779 42.2289 61.5044 42.4045C61.53 42.4447 61.5437 42.4914 61.544 42.5391C61.5443 42.5868 61.5311 42.6336 61.506 42.6741C61.481 42.7146 61.445 42.7472 61.4022 42.7681C61.3595 42.789 61.3117 42.7973 61.2644 42.7921Z"
          fill="#263238"/>
    <path d="M56.9334 42.6537C57.0863 42.6402 57.2384 42.6184 57.3889 42.5884C57.5539 42.586 57.7136 42.5302 57.8444 42.4293C57.8748 42.3864 57.8912 42.335 57.8912 42.2824C57.8912 42.2297 57.8748 42.1784 57.8444 42.1355C57.7725 42.0586 57.6815 42.0022 57.5808 41.9721C57.48 41.9419 57.3731 41.9392 57.271 41.9641C57.0569 41.9833 56.8572 42.0806 56.7098 42.2375C56.6764 42.2763 56.6555 42.3244 56.6499 42.3753C56.6444 42.4263 56.6544 42.4778 56.6786 42.5229C56.7029 42.568 56.7403 42.6047 56.7858 42.6281C56.8313 42.6514 56.8828 42.6603 56.9334 42.6537Z"
          fill="#263238"/>
    <path d="M57.7105 44.3945C57.7105 44.3945 57.6779 44.3945 57.6779 44.4353C57.6779 44.8923 57.5925 45.4145 57.1777 45.5492V45.5777C57.6861 45.5247 57.7837 44.8311 57.7105 44.3945Z"
          fill="#263238"/>
    <path d="M57.3403 43.9056C56.6124 43.824 56.4985 45.2928 57.1736 45.3703C57.8486 45.4479 57.9341 43.975 57.3403 43.9056Z"
          fill="#263238"/>
    <path d="M57.0311 43.9635C56.8969 44.0369 56.7586 44.1716 56.6041 44.1757C56.4496 44.1797 56.2991 44.0165 56.1974 43.8574H56.169C56.1446 44.1389 56.23 44.4368 56.5268 44.5021C56.8237 44.5673 57.0148 44.3266 57.1084 44.0492C57.1246 44.0125 57.084 43.9309 57.0311 43.9635Z"
          fill="#263238"/>
    <path d="M60.2843 44.4082C60.2843 44.4082 60.3169 44.4327 60.3169 44.449C60.264 44.906 60.2803 45.4323 60.6788 45.62C60.6788 45.62 60.6788 45.6485 60.6788 45.6444C60.1867 45.5302 60.1623 44.8284 60.2843 44.4082Z"
          fill="#263238"/>
    <path d="M60.7273 43.9668C61.4633 43.9668 61.3983 45.4438 60.7273 45.4397C60.0563 45.4356 60.1132 43.9587 60.7273 43.9668Z"
          fill="#263238"/>
    <path d="M61.0328 44.0642C61.1426 44.1458 61.2524 44.2927 61.3907 44.309C61.529 44.3254 61.6754 44.1744 61.7974 44.0234H61.8218C61.8218 44.309 61.7079 44.5946 61.4151 44.6395C61.1223 44.6844 61.0084 44.4274 60.9434 44.1418C60.9434 44.1214 61.0003 44.0642 61.0328 44.0642Z"
          fill="#263238"/>
    <path d="M57.3844 47.908C57.4779 48.0263 57.5674 48.1854 57.7301 48.2181C57.8987 48.2354 58.069 48.2174 58.2303 48.165C58.2303 48.165 58.2587 48.165 58.2303 48.1895C58.1554 48.271 58.0598 48.3304 57.9537 48.3614C57.8476 48.3923 57.7351 48.3935 57.6284 48.3649C57.5393 48.3303 57.4624 48.27 57.4074 48.1916C57.3524 48.1132 57.3217 48.0202 57.3193 47.9243C57.3397 47.8957 57.3681 47.8917 57.3844 47.908Z"
          fill="#263238"/>
    <path d="M59.3738 46.3811C59.3738 46.3811 59.4226 47.0665 59.4022 47.3888C59.4022 47.4174 59.3209 47.4296 59.2111 47.4296C58.9334 47.4623 58.6521 47.4174 58.3981 47.3001C58.1442 47.1828 57.9273 46.9975 57.7715 46.7646C57.7715 46.732 57.7959 46.7034 57.8203 46.7238C58.2114 47.0303 58.6906 47.202 59.1867 47.2134C59.2151 47.1277 59.0606 46.0424 59.1135 46.0384C59.3604 46.0769 59.6011 46.1483 59.8292 46.2505C59.7642 44.8184 59.4714 43.3945 59.4226 41.9788C59.4254 41.9696 59.4311 41.9617 59.4388 41.956C59.4464 41.9503 59.4557 41.9473 59.4653 41.9473C59.4748 41.9473 59.4841 41.9503 59.4918 41.956C59.4994 41.9617 59.5051 41.9696 59.508 41.9788C59.8679 43.4826 60.0764 45.019 60.1302 46.5647C60.1586 46.7279 59.512 46.4423 59.3738 46.3811Z"
          fill="#263238"/>
    <path d="M59.1905 47.3036C58.9891 47.5542 58.7254 47.747 58.4259 47.8625C58.2609 47.917 58.0827 47.917 57.9176 47.8625C57.5516 47.7524 57.5516 47.4137 57.6289 47.1241C57.6702 46.9716 57.7303 46.825 57.8078 46.6875C58.1909 47.0363 58.6757 47.2523 59.1905 47.3036Z"
          fill="#263238"/>
    <path d="M58.4259 47.8635C58.2609 47.918 58.0827 47.918 57.9176 47.8635C57.5516 47.7533 57.5516 47.4147 57.6289 47.125C57.8257 47.1386 58.012 47.2192 58.1569 47.3535C58.3019 47.4878 58.3968 47.6677 58.4259 47.8635Z"
          fill="#FF99BA"/>
    <path d="M51.0485 44.88C52.6751 44.9412 53.5413 39.9269 53.6389 39.3108C53.5983 39.7188 53.3868 41.7588 53.5373 41.8731C53.7142 41.8801 53.8912 41.8595 54.0619 41.8119C54.0791 41.563 54.1172 41.3159 54.1757 41.0734C54.22 41.3059 54.2377 41.5427 54.2286 41.7792L54.5377 41.718C54.5588 41.186 54.6504 40.6591 54.8101 40.1513C54.8752 39.9555 54.8589 40.8449 54.9891 41.6324C56.4181 41.3304 57.8761 41.1881 59.3363 41.208C59.743 41.208 60.1009 41.257 60.4099 41.2937C60.4587 40.6817 60.4384 40.0208 60.4709 40.1636C60.5666 40.5444 60.6239 40.934 60.6417 41.3264C60.8085 41.3264 60.9671 41.3712 61.1053 41.3957C61.2111 40.5308 60.902 39.115 61.024 39.3557C61.3865 40.0378 61.617 40.7826 61.7031 41.5508C62.2847 41.7099 62.4392 41.8404 62.4636 41.6854C62.4177 39.9537 61.7539 38.2961 60.5929 37.0138C58.6897 34.9248 54.6434 34.1333 52.118 36.9404C52.118 36.9404 50.1294 38.042 49.678 40.0208C49.2266 41.9996 50.1009 44.8433 51.0485 44.88Z"
          fill="#263238"/>
    <path d="M51.9716 44.9084C51.9716 44.9084 50.6784 42.7093 49.6942 43.1581C48.7101 43.6069 49.5723 46.7158 50.6499 47.2136C50.7832 47.2872 50.93 47.333 51.0814 47.3482C51.2328 47.3634 51.3858 47.3476 51.5309 47.3018C51.6761 47.2561 51.8105 47.1813 51.9261 47.082C52.0417 46.9827 52.136 46.8609 52.2034 46.724L51.9716 44.9084Z"
          fill="#F7A9A0"/>
    <path d="M49.963 44.0645C49.963 44.0645 49.9386 44.0645 49.963 44.093C50.7153 44.4684 51.0691 45.2232 51.2969 45.9943C51.2577 45.9131 51.2015 45.8414 51.132 45.7841C51.0626 45.7268 50.9816 45.6853 50.8946 45.6624C50.8077 45.6396 50.7168 45.6359 50.6283 45.6516C50.5398 45.6673 50.4557 45.7021 50.3819 45.7536C50.3615 45.7536 50.3819 45.7985 50.3819 45.7985C50.5214 45.765 50.6678 45.7757 50.801 45.829C50.9342 45.8824 51.0478 45.9757 51.1261 46.0963C51.2536 46.3011 51.3598 46.5185 51.4433 46.745C51.4758 46.8185 51.6059 46.7899 51.5856 46.7083V46.6879C51.6832 45.6965 51.0203 44.2277 49.963 44.0645Z"
          fill="#263238"/>
</svg>
