<svg width="71" height="80" viewBox="0 0 71 80" fill="none" xmlns="http://www.w3.org/2000/svg">
<path d="M48.0138 5.81782C44.7313 2.06606 40.1466 0 35.0862 0C29.9989 0 25.399 2.05356 22.1317 5.78211C18.8289 9.55173 17.2197 14.6749 17.5976 20.207C18.3465 31.1212 26.1918 39.9998 35.0862 39.9998C43.9807 39.9998 51.8124 31.123 52.5732 20.2106C52.9561 14.7285 51.3368 9.61602 48.0138 5.81782ZM64.7737 79.9995H5.3987C4.62153 80.0102 3.85189 79.8374 3.14576 79.4936C2.43963 79.1498 1.81478 78.6437 1.31666 78.012C0.220248 76.6245 -0.221692 74.7299 0.105546 72.8139C1.5292 64.4532 5.9722 57.43 12.9555 52.4997C19.1595 48.1229 27.0183 45.714 35.0862 45.714C43.1541 45.714 51.0129 48.1247 57.2169 52.4997C64.2002 57.4282 68.6432 64.4514 70.0669 72.8121C70.3941 74.7281 69.9522 76.6228 68.8558 78.0103C68.3578 78.6422 67.733 79.1487 67.0269 79.4928C66.3208 79.8369 65.551 80.01 64.7737 79.9995Z" fill="#F15A24"/>
</svg>
