<svg width="105" height="80" viewBox="0 0 105 80" fill="none" xmlns="http://www.w3.org/2000/svg">
<path d="M69.5893 40C65.1182 40 60.795 37.9136 57.4112 34.1272C54.1209 30.4341 52.1115 25.5091 51.757 20.2636C51.3786 14.6682 53.0118 9.52272 56.3543 5.77272C59.6968 2.02273 64.3701 0 69.5893 0C74.7716 0 79.458 2.05909 82.7896 5.79999C86.1538 9.57726 87.7914 14.7136 87.413 20.2613C87.0498 25.5136 85.0426 30.4363 81.7588 34.125C78.3837 37.9136 74.0627 40 69.5893 40ZM98.2581 79.9999H40.9228C40.001 80.0051 39.0903 79.7891 38.2609 79.3687C37.4314 78.9483 36.7054 78.3346 36.1385 77.5749C35.5372 76.7513 35.122 75.7963 34.9239 74.7812C34.7258 73.7662 34.75 72.7175 34.9946 71.7136C36.8257 64.0295 41.3621 57.6567 48.1123 53.2863C54.1035 49.409 61.7301 47.2727 69.5893 47.2727C77.603 47.2727 85.0295 49.3181 91.0556 53.1931C97.821 57.5408 102.364 63.9499 104.186 71.7272C104.428 72.7318 104.449 73.7805 104.249 74.795C104.049 75.8096 103.632 76.7637 103.029 77.5863C102.463 78.3425 101.739 78.9531 100.912 79.3715C100.085 79.7899 99.1769 80.0048 98.2581 79.9999ZM28.488 40.909C20.8353 40.909 14.1069 33.4727 13.4827 24.3341C13.1739 19.6523 14.5701 15.3227 17.3972 12.1477C20.1938 9.00453 24.1386 7.27272 28.488 7.27272C32.8373 7.27272 36.7518 9.01363 39.5636 12.175C42.4124 15.375 43.8042 19.6954 43.478 24.3386C42.8539 33.475 36.1276 40.909 28.488 40.909ZM42.7669 48.0568C38.9417 46.1022 33.9769 45.1249 28.4902 45.1249C22.0836 45.1249 15.8618 46.8704 10.9688 50.0386C5.42122 53.6363 1.68947 58.8749 0.182425 65.1999C-0.038119 66.1097 -0.0589787 67.0598 0.121407 67.9792C0.301793 68.8985 0.678754 69.7634 1.22409 70.509C1.74155 71.2032 2.40447 71.7642 3.16187 72.1488C3.91927 72.5333 4.75098 72.7312 5.59302 72.7272H29.7319C30.1393 72.7271 30.5338 72.5776 30.8466 72.3048C31.1593 72.0319 31.3705 71.6529 31.4434 71.234C31.4673 71.0908 31.4977 70.9476 31.5325 70.8067C33.3767 63.0658 37.6977 56.5249 44.0826 51.7568C44.3174 51.5799 44.5063 51.3445 44.6321 51.072C44.7579 50.7996 44.8167 50.4986 44.8031 50.1964C44.7895 49.8942 44.7039 49.6003 44.5542 49.3414C44.4045 49.0824 44.1953 48.8667 43.9456 48.7136C43.6042 48.5045 43.2127 48.284 42.7669 48.0568Z" fill="#F15A24"/>
</svg>
