<svg xmlns="http://www.w3.org/2000/svg" width="26" height="26" viewBox="0 0 26 26" fill="none">
    <path d="M13 15.713C14.5385 15.713 15.7857 14.4984 15.7857 13C15.7857 11.5016 14.5385 10.287 13 10.287C11.4615 10.287 10.2143 11.5016 10.2143 13C10.2143 14.4984 11.4615 15.713 13 15.713Z"
          fill="white"/>
    <path d="M25.4422 15.487L25.415 15.4655L23.5834 14.0666C23.4674 13.9772 23.3748 13.8623 23.3133 13.7313C23.2517 13.6004 23.223 13.457 23.2293 13.3131V12.6597C23.2235 12.5167 23.2526 12.3745 23.3143 12.2446C23.3759 12.1147 23.4683 12.0009 23.5839 11.9125L25.415 10.513L25.4422 10.4916C25.7246 10.2625 25.9141 9.943 25.9769 9.59031C26.0396 9.23762 25.9715 8.87469 25.7846 8.56643L23.3059 4.38948C23.3031 4.38554 23.3006 4.38138 23.2984 4.37704C23.1106 4.07305 22.8194 3.84272 22.4754 3.72604C22.1313 3.60937 21.7562 3.61372 21.4151 3.73835L21.3948 3.7457L19.2417 4.58957C19.1058 4.64308 18.9588 4.66437 18.8128 4.6517C18.6668 4.63902 18.526 4.59273 18.4019 4.51665C18.2116 4.39984 18.0181 4.28943 17.8216 4.18543C17.6942 4.11813 17.5847 4.02261 17.5022 3.90656C17.4196 3.79051 17.3662 3.65719 17.3463 3.51735L17.0219 1.27965L17.0149 1.23896C16.9443 0.892364 16.7533 0.58001 16.4741 0.354388C16.1948 0.128765 15.8444 0.00362592 15.4816 0H10.5184C10.1505 0.00114656 9.79479 0.128709 9.51398 0.360215C9.23317 0.591721 9.04526 0.912317 8.98335 1.26552L8.97813 1.29717L8.65487 3.53939C8.63504 3.67883 8.58206 3.81184 8.50015 3.92782C8.41824 4.04381 8.30965 4.13957 8.18304 4.20748C7.98592 4.31088 7.79237 4.42059 7.60269 4.53644C7.47887 4.61205 7.33841 4.65799 7.19283 4.67046C7.04725 4.68294 6.9007 4.66161 6.76523 4.60822L4.61037 3.76039L4.59006 3.75248C4.2485 3.62772 3.87284 3.62353 3.52843 3.74064C3.18402 3.85775 2.89267 4.08874 2.70507 4.39344L2.69752 4.40587L0.21534 8.58565C0.0282508 8.89423 -0.0400337 9.25755 0.0226975 9.61066C0.0854286 9.96377 0.275084 10.2836 0.55775 10.513L0.585027 10.5345L2.41663 11.9334C2.53262 12.0228 2.62519 12.1377 2.68673 12.2687C2.74827 12.3996 2.77703 12.543 2.77065 12.6869V13.3403C2.77646 13.4832 2.74735 13.6255 2.6857 13.7554C2.62406 13.8853 2.53164 13.9991 2.41605 14.0875L0.585027 15.487L0.55775 15.5084C0.275364 15.7375 0.0858626 16.057 0.0231316 16.4097C-0.0395993 16.7624 0.0285312 17.1253 0.21534 17.4336L2.69404 21.6105C2.69689 21.6145 2.69942 21.6186 2.70158 21.623C2.8894 21.927 3.1806 22.1573 3.52463 22.274C3.86865 22.3906 4.24377 22.3863 4.58484 22.2617L4.60515 22.2543L6.75653 21.4104C6.89243 21.3569 7.03943 21.3356 7.18544 21.3483C7.33145 21.361 7.47227 21.4073 7.5963 21.4833C7.78666 21.6005 7.98011 21.7109 8.17666 21.8146C8.30409 21.8819 8.4135 21.9774 8.49607 22.0934C8.57863 22.2095 8.63203 22.3428 8.65197 22.4827L8.97465 24.7203L8.98161 24.761C9.05236 25.1082 9.24384 25.421 9.52378 25.6467C9.80372 25.8724 10.155 25.9972 10.5184 26H15.4816C15.8495 25.9989 16.2052 25.8713 16.486 25.6398C16.7668 25.4083 16.9547 25.0877 17.0166 24.7345L17.0219 24.7028L17.3451 22.4606C17.3653 22.3209 17.4187 22.1877 17.5011 22.0717C17.5835 21.9557 17.6927 21.8601 17.8198 21.7925C18.0183 21.6885 18.2122 21.5783 18.4002 21.4636C18.524 21.3879 18.6645 21.342 18.8101 21.3295C18.9556 21.3171 19.1022 21.3384 19.2377 21.3918L21.3925 22.2368L21.4128 22.2447C21.7544 22.3697 22.1301 22.374 22.4746 22.2569C22.819 22.1397 23.1104 21.9086 23.2978 21.6037C23.3001 21.5995 23.3026 21.5953 23.3054 21.5913L25.7841 17.4149C25.9715 17.1064 26.04 16.7429 25.9774 16.3897C25.9148 16.0364 25.7251 15.7164 25.4422 15.487ZM17.6376 13.2125C17.5954 14.0878 17.2929 14.9323 16.767 15.6432C16.241 16.3542 15.5143 16.901 14.6752 17.2172C13.8361 17.5334 12.9208 17.6053 12.0405 17.4243C11.1602 17.2432 10.3529 16.8169 9.71671 16.1973C9.08055 15.5776 8.64296 14.7913 8.45714 13.934C8.27133 13.0766 8.3453 12.1851 8.67006 11.368C8.99482 10.5508 9.55638 9.84312 10.2864 9.33101C11.0165 8.81889 11.8836 8.5244 12.7824 8.48335C13.4276 8.45568 14.0716 8.55908 14.6736 8.78696C15.2756 9.01484 15.8223 9.36222 16.2789 9.80702C16.7356 10.2518 17.0922 10.7843 17.3261 11.3706C17.56 11.9569 17.6661 12.5841 17.6376 13.2125Z"
          fill="white"/>
</svg>
