<svg xmlns="http://www.w3.org/2000/svg" width="28" height="27" viewBox="0 0 28 27" fill="none">
    <path d="M23.6655 8.6042C23.4794 8.41686 23.375 8.16354 23.375 7.8995V1.93168C23.375 1.37939 22.9273 0.931677 22.375 0.931677H19.6875C19.1352 0.931677 18.6875 1.37939 18.6875 1.93168V2.04826C18.6875 2.92047 17.6489 3.37463 17.0085 2.78241L14.6815 0.630266C14.2972 0.27485 13.7038 0.275939 13.3208 0.632764L0.858647 12.2435C0.194262 12.8625 0.632265 13.9752 1.54032 13.9752H1.75C2.30228 13.9752 2.75 14.4229 2.75 14.9752V25.087C2.75 25.6392 3.19772 26.087 3.75 26.087H10.1875C10.7398 26.087 11.1875 25.6392 11.1875 25.087V17.7702C11.1875 17.2179 11.6352 16.7702 12.1875 16.7702H15.8125C16.3648 16.7702 16.8125 17.2179 16.8125 17.7702V25.087C16.8125 25.6392 17.2602 26.087 17.8125 26.087H24.25C24.8023 26.087 25.25 25.6392 25.25 25.087V14.9752C25.25 14.4229 25.6977 13.9752 26.25 13.9752H26.5974C27.4866 13.9752 27.9335 12.9014 27.3069 12.2705L23.6655 8.6042Z"
          fill="white"/>
</svg>
